<?plantuml 1.2026.1?><svg xmlns="http://www.w3.org/2000/svg" xmlns:xlink="http://www.w3.org/1999/xlink" contentStyleType="text/css" data-diagram-type="CLASS" height="1376px" preserveAspectRatio="none" style="width:2599px;height:1376px;background:#FFFFFF;" version="1.1" viewBox="0 0 2599 1376" width="2599px" zoomAndPan="magnify"><defs/><g><!--cluster Presentation Layer--><g class="cluster" data-qualified-name="Presentation Layer" data-source-line="8" id="ent0002"><path d="M8.5,6 L135.5479,6 A3.75,3.75 0 0 1 138.0479,8.5 L145.0479,29.6094 L415.5,29.6094 A2.5,2.5 0 0 1 418,32.1094 L418,649 A2.5,2.5 0 0 1 415.5,651.5 L8.5,651.5 A2.5,2.5 0 0 1 6,649 L6,8.5 A2.5,2.5 0 0 1 8.5,6" fill="#E8F5E9" style="stroke:#000000;stroke-width:1.5;"/><line style="stroke:#000000;stroke-width:1.5;" x1="6" x2="145.0479" y1="29.6094" y2="29.6094"/><text fill="#000000" font-family="sans-serif" font-size="14" font-weight="bold" lengthAdjust="spacing" textLength="126.0479" x="10" y="22.5332">Presentation Layer</text></g><!--cluster Application Layer--><g class="cluster" data-qualified-name="Application Layer" data-source-line="30" id="ent0007"><path d="M2140.5,502 L2258.9688,502 A3.75,3.75 0 0 1 2261.4688,504.5 L2268.4688,525.6094 L2589.5,525.6094 A2.5,2.5 0 0 1 2592,528.1094 L2592,680.5 A2.5,2.5 0 0 1 2589.5,683 L2140.5,683 A2.5,2.5 0 0 1 2138,680.5 L2138,504.5 A2.5,2.5 0 0 1 2140.5,502" fill="#E3F2FD" style="stroke:#000000;stroke-width:1.5;"/><line style="stroke:#000000;stroke-width:1.5;" x1="2138" x2="2268.4688" y1="525.6094" y2="525.6094"/><text fill="#000000" font-family="sans-serif" font-size="14" font-weight="bold" lengthAdjust="spacing" textLength="117.4688" x="2142" y="518.5332">Application Layer</text></g><!--cluster Business Layer--><g class="cluster" data-qualified-name="Business Layer" data-source-line="44" id="ent0010"><path d="M444.5,509.5 L548.9961,509.5 A3.75,3.75 0 0 1 551.4961,512 L558.4961,533.1094 L838.5,533.1094 A2.5,2.5 0 0 1 841,535.6094 L841,914.5 A2.5,2.5 0 0 1 838.5,917 L444.5,917 A2.5,2.5 0 0 1 442,914.5 L442,512 A2.5,2.5 0 0 1 444.5,509.5" fill="#FFF3E0" style="stroke:#000000;stroke-width:1.5;"/><line style="stroke:#000000;stroke-width:1.5;" x1="442" x2="558.4961" y1="533.1094" y2="533.1094"/><text fill="#000000" font-family="sans-serif" font-size="14" font-weight="bold" lengthAdjust="spacing" textLength="103.4961" x="446" y="526.0332">Business Layer</text></g><!--cluster Domain Layer--><g class="cluster" data-qualified-name="Domain Layer" data-source-line="59" id="ent0014"><path d="M1745.5,731 L1839.0859,731 A3.75,3.75 0 0 1 1841.5859,733.5 L1848.5859,754.6094 L2320.5,754.6094 A2.5,2.5 0 0 1 2323,757.1094 L2323,1366.5 A2.5,2.5 0 0 1 2320.5,1369 L1745.5,1369 A2.5,2.5 0 0 1 1743,1366.5 L1743,733.5 A2.5,2.5 0 0 1 1745.5,731" fill="#FCE4EC" style="stroke:#000000;stroke-width:1.5;"/><line style="stroke:#000000;stroke-width:1.5;" x1="1743" x2="1848.5859" y1="754.6094" y2="754.6094"/><text fill="#000000" font-family="sans-serif" font-size="14" font-weight="bold" lengthAdjust="spacing" textLength="92.5859" x="1747" y="747.5332">Domain Layer</text></g><!--cluster Data Access Layer--><g class="cluster" data-qualified-name="Data Access Layer" data-source-line="97" id="ent0021"><path d="M867.5,740 L993.0234,740 A3.75,3.75 0 0 1 995.5234,742.5 L1002.5234,763.6094 L1066.5,763.6094 A2.5,2.5 0 0 1 1069,766.1094 L1069,1355.5 A2.5,2.5 0 0 1 1066.5,1358 L867.5,1358 A2.5,2.5 0 0 1 865,1355.5 L865,742.5 A2.5,2.5 0 0 1 867.5,740" fill="#F3E5F5" style="stroke:#000000;stroke-width:1.5;"/><line style="stroke:#000000;stroke-width:1.5;" x1="865" x2="1002.5234" y1="763.6094" y2="763.6094"/><text fill="#000000" font-family="sans-serif" font-size="14" font-weight="bold" lengthAdjust="spacing" textLength="124.5234" x="869" y="756.5332">Data Access Layer</text></g><!--cluster Infrastructure--><g class="cluster" data-qualified-name="Infrastructure" data-source-line="113" id="ent0025"><path d="M1095.5,982.5 L1187.5205,982.5 A3.75,3.75 0 0 1 1190.0205,985 L1197.0205,1006.1094 L1543.5,1006.1094 A2.5,2.5 0 0 1 1546,1008.6094 L1546,1133 A2.5,2.5 0 0 1 1543.5,1135.5 L1095.5,1135.5 A2.5,2.5 0 0 1 1093,1133 L1093,985 A2.5,2.5 0 0 1 1095.5,982.5" fill="#F1F8E9" style="stroke:#000000;stroke-width:1.5;"/><line style="stroke:#000000;stroke-width:1.5;" x1="1093" x2="1197.0205" y1="1006.1094" y2="1006.1094"/><text fill="#000000" font-family="sans-serif" font-size="14" font-weight="bold" lengthAdjust="spacing" textLength="91.0205" x="1097" y="999.0332">Infrastructure</text></g><!--class SceneManager--><g class="entity" data-qualified-name="Presentation Layer.SceneManager" data-source-line="9" id="ent0003"><rect fill="#F1F1F1" height="146.75" rx="2.5" ry="2.5" style="stroke:#181818;stroke-width:0.5;" width="126.9512" x="234.5" y="42"/><ellipse cx="249.5" cy="63.3516" fill="#ADD1B2" rx="11" ry="11" style="stroke:#181818;stroke-width:1;"/><path d="M252.2656,59.2266 Q252.4219,59.0078 252.6094,58.8984 Q252.7969,58.7891 253.0156,58.7891 Q253.3906,58.7891 253.625,59.0547 Q253.8594,59.3047 253.8594,59.9141 L253.8594,61.3672 Q253.8594,61.9766 253.625,62.2422 Q253.3906,62.5078 253.0156,62.5078 Q252.6719,62.5078 252.4688,62.3047 Q252.2656,62.1172 252.1563,61.6016 Q252.1094,61.2422 251.9219,61.0547 Q251.5938,60.6797 250.9844,60.4609 Q250.375,60.2422 249.75,60.2422 Q248.9844,60.2422 248.3438,60.5703 Q247.7188,60.8984 247.2188,61.6484 Q246.7344,62.3984 246.7344,63.4297 L246.7344,64.5234 Q246.7344,65.7578 247.625,66.5859 Q248.5156,67.3984 250.1094,67.3984 Q251.0469,67.3984 251.7031,67.1484 Q252.0938,66.9922 252.5156,66.5547 Q252.7813,66.2891 252.9219,66.2109 Q253.0781,66.1328 253.2813,66.1328 Q253.6094,66.1328 253.8594,66.3984 Q254.125,66.6484 254.125,66.9922 Q254.125,67.3359 253.7813,67.7422 Q253.2813,68.3203 252.4844,68.6484 Q251.4063,69.1016 250.1094,69.1016 Q248.5938,69.1016 247.3906,68.4766 Q246.4063,67.9766 245.7188,66.9141 Q245.0313,65.8359 245.0313,64.5547 L245.0313,63.3984 Q245.0313,62.0703 245.6406,60.9297 Q246.2656,59.7734 247.3594,59.1641 Q248.4531,58.5391 249.6875,58.5391 Q250.4219,58.5391 251.0625,58.7109 Q251.7188,58.8672 252.2656,59.2266 Z " fill="#000000"/><text fill="#000000" font-family="sans-serif" font-size="12" font-style="italic" lengthAdjust="spacing" textLength="76.0488" x="272.9512" y="59.457">&#171;Coordinator&#187;</text><text fill="#000000" font-family="sans-serif" font-size="14" lengthAdjust="spacing" textLength="94.9512" x="263.5" y="76.627">SceneManager</text><line style="stroke:#181818;stroke-width:0.5;" x1="235.5" x2="360.4512" y1="84.7031" y2="84.7031"/><line style="stroke:#181818;stroke-width:0.5;" x1="235.5" x2="360.4512" y1="92.7031" y2="92.7031"/><text fill="#000000" font-family="sans-serif" font-size="14" lengthAdjust="spacing" textLength="84.4375" x="240.5" y="111.2363">+showLogin()</text><text fill="#000000" font-family="sans-serif" font-size="14" lengthAdjust="spacing" textLength="85.2031" x="240.5" y="128.8457">+showMenu()</text><text fill="#000000" font-family="sans-serif" font-size="14" lengthAdjust="spacing" textLength="90.6309" x="240.5" y="146.4551">+showWaiter()</text><text fill="#000000" font-family="sans-serif" font-size="14" lengthAdjust="spacing" textLength="96.8789" x="240.5" y="164.0645">+showKitchen()</text><text fill="#000000" font-family="sans-serif" font-size="14" lengthAdjust="spacing" textLength="105.4375" x="240.5" y="181.6738">+showManager()</text></g><!--class View--><g class="entity" data-qualified-name="Presentation Layer.View" data-source-line="17" id="ent0004"><rect fill="#F1F1F1" height="65.6094" rx="2.5" ry="2.5" style="stroke:#181818;stroke-width:0.5;" width="78.5342" x="46.5" y="569.5"/><ellipse cx="68.7853" cy="585.5" fill="#B4A7E5" rx="11" ry="11" style="stroke:#181818;stroke-width:1;"/><path d="M69.7384,582.1406 L69.7384,588.7969 L71.4571,588.7969 Q72.0665,588.7969 72.3321,589.0313 Q72.5978,589.2656 72.5978,589.6563 Q72.5978,590.0313 72.3321,590.2656 Q72.0665,590.5 71.4571,590.5 L66.3165,590.5 Q65.7071,590.5 65.4415,590.2656 Q65.1759,590.0313 65.1759,589.6406 Q65.1759,589.2656 65.4415,589.0313 Q65.7071,588.7969 66.3165,588.7969 L68.0353,588.7969 L68.0353,582.1406 L66.3165,582.1406 Q65.7071,582.1406 65.4415,581.9063 Q65.1759,581.6719 65.1759,581.2813 Q65.1759,580.9063 65.4415,580.6719 Q65.7071,580.4375 66.3165,580.4375 L71.4571,580.4375 Q72.0665,580.4375 72.3321,580.6719 Q72.5978,580.9063 72.5978,581.2813 Q72.5978,581.6719 72.3321,581.9063 Q72.0665,582.1406 71.4571,582.1406 L69.7384,582.1406 Z " fill="#000000"/><text fill="#000000" font-family="sans-serif" font-size="14" font-style="italic" lengthAdjust="spacing" textLength="30.3447" x="84.4042" y="591.2285">View</text><line style="stroke:#181818;stroke-width:0.5;" x1="47.5" x2="124.0342" y1="601.5" y2="601.5"/><line style="stroke:#181818;stroke-width:0.5;" x1="47.5" x2="124.0342" y1="609.5" y2="609.5"/><text fill="#000000" font-family="sans-serif" font-size="14" lengthAdjust="spacing" textLength="66.5342" x="52.5" y="628.0332">+getRoot()</text></g><!--class ViewFactory--><g class="entity" data-qualified-name="Presentation Layer.ViewFactory" data-source-line="21" id="ent0005"><rect fill="#F1F1F1" height="93.9219" rx="2.5" ry="2.5" style="stroke:#181818;stroke-width:0.5;" width="127.5342" x="22" y="316.5"/><ellipse cx="45.3312" cy="337.8516" fill="#ADD1B2" rx="11" ry="11" style="stroke:#181818;stroke-width:1;"/><path d="M48.0968,333.7266 Q48.253,333.5078 48.4405,333.3984 Q48.628,333.2891 48.8468,333.2891 Q49.2218,333.2891 49.4562,333.5547 Q49.6905,333.8047 49.6905,334.4141 L49.6905,335.8672 Q49.6905,336.4766 49.4562,336.7422 Q49.2218,337.0078 48.8468,337.0078 Q48.503,337.0078 48.2999,336.8047 Q48.0968,336.6172 47.9874,336.1016 Q47.9405,335.7422 47.753,335.5547 Q47.4249,335.1797 46.8155,334.9609 Q46.2062,334.7422 45.5812,334.7422 Q44.8155,334.7422 44.1749,335.0703 Q43.5499,335.3984 43.0499,336.1484 Q42.5655,336.8984 42.5655,337.9297 L42.5655,339.0234 Q42.5655,340.2578 43.4562,341.0859 Q44.3468,341.8984 45.9405,341.8984 Q46.878,341.8984 47.5343,341.6484 Q47.9249,341.4922 48.3468,341.0547 Q48.6124,340.7891 48.753,340.7109 Q48.9093,340.6328 49.1124,340.6328 Q49.4405,340.6328 49.6905,340.8984 Q49.9562,341.1484 49.9562,341.4922 Q49.9562,341.8359 49.6124,342.2422 Q49.1124,342.8203 48.3155,343.1484 Q47.2374,343.6016 45.9405,343.6016 Q44.4249,343.6016 43.2218,342.9766 Q42.2374,342.4766 41.5499,341.4141 Q40.8624,340.3359 40.8624,339.0547 L40.8624,337.8984 Q40.8624,336.5703 41.4718,335.4297 Q42.0968,334.2734 43.1905,333.6641 Q44.2843,333.0391 45.5187,333.0391 Q46.253,333.0391 46.8937,333.2109 Q47.5499,333.3672 48.0968,333.7266 Z " fill="#000000"/><text fill="#000000" font-family="sans-serif" font-size="12" font-style="italic" lengthAdjust="spacing" textLength="53.3555" x="73.015" y="333.957">&#171;Factory&#187;</text><text fill="#000000" font-family="sans-serif" font-size="14" lengthAdjust="spacing" textLength="77.0205" x="61.1825" y="351.127">ViewFactory</text><line style="stroke:#181818;stroke-width:0.5;" x1="23" x2="148.5342" y1="359.2031" y2="359.2031"/><line style="stroke:#181818;stroke-width:0.5;" x1="23" x2="148.5342" y1="367.2031" y2="367.2031"/><text fill="#000000" font-family="sans-serif" font-size="14" lengthAdjust="spacing" textLength="99.2031" x="28" y="385.7363">+forRole(String)</text><text fill="#000000" font-family="sans-serif" font-size="14" lengthAdjust="spacing" textLength="115.5342" x="28" y="403.3457">+forTakeOrder(int)</text></g><!--class Controllers--><g class="entity" data-qualified-name="Presentation Layer.Controllers" data-source-line="26" id="ent0006"><rect fill="#F1F1F1" height="149.2656" rx="2.5" ry="2.5" style="stroke:#181818;stroke-width:0.5;" width="151.834" x="250" y="289"/><ellipse cx="265" cy="355.6328" fill="#ADD1B2" rx="11" ry="11" style="stroke:#181818;stroke-width:1;"/><path d="M267.7656,351.5078 Q267.9219,351.2891 268.1094,351.1797 Q268.2969,351.0703 268.5156,351.0703 Q268.8906,351.0703 269.125,351.3359 Q269.3594,351.5859 269.3594,352.1953 L269.3594,353.6484 Q269.3594,354.2578 269.125,354.5234 Q268.8906,354.7891 268.5156,354.7891 Q268.1719,354.7891 267.9688,354.5859 Q267.7656,354.3984 267.6563,353.8828 Q267.6094,353.5234 267.4219,353.3359 Q267.0938,352.9609 266.4844,352.7422 Q265.875,352.5234 265.25,352.5234 Q264.4844,352.5234 263.8438,352.8516 Q263.2188,353.1797 262.7188,353.9297 Q262.2344,354.6797 262.2344,355.7109 L262.2344,356.8047 Q262.2344,358.0391 263.125,358.8672 Q264.0156,359.6797 265.6094,359.6797 Q266.5469,359.6797 267.2031,359.4297 Q267.5938,359.2734 268.0156,358.8359 Q268.2813,358.5703 268.4219,358.4922 Q268.5781,358.4141 268.7813,358.4141 Q269.1094,358.4141 269.3594,358.6797 Q269.625,358.9297 269.625,359.2734 Q269.625,359.6172 269.2813,360.0234 Q268.7813,360.6016 267.9844,360.9297 Q266.9063,361.3828 265.6094,361.3828 Q264.0938,361.3828 262.8906,360.7578 Q261.9063,360.2578 261.2188,359.1953 Q260.5313,358.1172 260.5313,356.8359 L260.5313,355.6797 Q260.5313,354.3516 261.1406,353.2109 Q261.7656,352.0547 262.8594,351.4453 Q263.9531,350.8203 265.1875,350.8203 Q265.9219,350.8203 266.5625,350.9922 Q267.2188,351.1484 267.7656,351.5078 Z " fill="#000000"/><text fill="#000000" font-family="sans-serif" font-size="14" lengthAdjust="spacing" textLength="67.6895" x="305.0723" y="308.5332">Controllers</text><text fill="#000000" font-family="sans-serif" font-size="14" lengthAdjust="spacing" textLength="103.4961" x="287.1689" y="326.1426">(LoginController,</text><text fill="#000000" font-family="sans-serif" font-size="14" lengthAdjust="spacing" textLength="105.0273" x="286.4033" y="343.752">WaiterController,</text><text fill="#000000" font-family="sans-serif" font-size="14" lengthAdjust="spacing" textLength="111.2754" x="283.2793" y="361.3613">KitchenController,</text><text fill="#000000" font-family="sans-serif" font-size="14" lengthAdjust="spacing" textLength="99.5996" x="289.1172" y="378.9707">MenuController,</text><text fill="#000000" font-family="sans-serif" font-size="14" lengthAdjust="spacing" textLength="119.834" x="279" y="396.5801">ManagerController,</text><text fill="#000000" font-family="sans-serif" font-size="14" lengthAdjust="spacing" textLength="27.2275" x="325.3032" y="414.1895">etc.)</text><line style="stroke:#181818;stroke-width:0.5;" x1="251" x2="400.834" y1="422.2656" y2="422.2656"/><line style="stroke:#181818;stroke-width:0.5;" x1="251" x2="400.834" y1="430.2656" y2="430.2656"/></g><!--class UserSession--><g class="entity" data-qualified-name="Application Layer.UserSession" data-source-line="31" id="ent0008"><rect fill="#F1F1F1" height="129.1406" rx="2.5" ry="2.5" style="stroke:#181818;stroke-width:0.5;" width="142.334" x="2434" y="538"/><ellipse cx="2462.9359" cy="559.3516" fill="#ADD1B2" rx="11" ry="11" style="stroke:#181818;stroke-width:1;"/><path d="M2465.7016,555.2266 Q2465.8578,555.0078 2466.0453,554.8984 Q2466.2328,554.7891 2466.4516,554.7891 Q2466.8266,554.7891 2467.0609,555.0547 Q2467.2953,555.3047 2467.2953,555.9141 L2467.2953,557.3672 Q2467.2953,557.9766 2467.0609,558.2422 Q2466.8266,558.5078 2466.4516,558.5078 Q2466.1078,558.5078 2465.9047,558.3047 Q2465.7016,558.1172 2465.5922,557.6016 Q2465.5453,557.2422 2465.3578,557.0547 Q2465.0297,556.6797 2464.4203,556.4609 Q2463.8109,556.2422 2463.1859,556.2422 Q2462.4203,556.2422 2461.7797,556.5703 Q2461.1547,556.8984 2460.6547,557.6484 Q2460.1703,558.3984 2460.1703,559.4297 L2460.1703,560.5234 Q2460.1703,561.7578 2461.0609,562.5859 Q2461.9516,563.3984 2463.5453,563.3984 Q2464.4828,563.3984 2465.1391,563.1484 Q2465.5297,562.9922 2465.9516,562.5547 Q2466.2172,562.2891 2466.3578,562.2109 Q2466.5141,562.1328 2466.7172,562.1328 Q2467.0453,562.1328 2467.2953,562.3984 Q2467.5609,562.6484 2467.5609,562.9922 Q2467.5609,563.3359 2467.2172,563.7422 Q2466.7172,564.3203 2465.9203,564.6484 Q2464.8422,565.1016 2463.5453,565.1016 Q2462.0297,565.1016 2460.8266,564.4766 Q2459.8422,563.9766 2459.1547,562.9141 Q2458.4672,561.8359 2458.4672,560.5547 L2458.4672,559.3984 Q2458.4672,558.0703 2459.0766,556.9297 Q2459.7016,555.7734 2460.7953,555.1641 Q2461.8891,554.5391 2463.1234,554.5391 Q2463.8578,554.5391 2464.4984,554.7109 Q2465.1547,554.8672 2465.7016,555.2266 Z " fill="#000000"/><text fill="#000000" font-family="sans-serif" font-size="12" font-style="italic" lengthAdjust="spacing" textLength="63.3867" x="2488.0221" y="555.457">&#171;Singleton&#187;</text><text fill="#000000" font-family="sans-serif" font-size="14" lengthAdjust="spacing" textLength="79.3652" x="2480.0328" y="572.627">UserSession</text><line style="stroke:#181818;stroke-width:0.5;" x1="2435" x2="2575.334" y1="580.7031" y2="580.7031"/><text fill="#000000" font-family="sans-serif" font-size="14" lengthAdjust="spacing" textLength="65.3447" x="2440" y="599.2363">-User user</text><line style="stroke:#181818;stroke-width:0.5;" x1="2435" x2="2575.334" y1="606.3125" y2="606.3125"/><text fill="#000000" font-family="sans-serif" font-size="14" lengthAdjust="spacing" textLength="89.8857" x="2440" y="624.8457">+getInstance()</text><text fill="#000000" font-family="sans-serif" font-size="14" lengthAdjust="spacing" textLength="66.5205" x="2440" y="642.4551">+getUser()</text><text fill="#000000" font-family="sans-serif" font-size="14" lengthAdjust="spacing" textLength="130.334" x="2440" y="660.0645">+cleanUserSession()</text></g><!--class UsersFactory--><g class="entity" data-qualified-name="Application Layer.UsersFactory" data-source-line="38" id="ent0009"><rect fill="#F1F1F1" height="76.3125" rx="2.5" ry="2.5" style="stroke:#181818;stroke-width:0.5;" width="178.8926" x="2154.5" y="564.5"/><ellipse cx="2198.1462" cy="585.8516" fill="#ADD1B2" rx="11" ry="11" style="stroke:#181818;stroke-width:1;"/><path d="M2200.9118,581.7266 Q2201.0681,581.5078 2201.2556,581.3984 Q2201.4431,581.2891 2201.6618,581.2891 Q2202.0368,581.2891 2202.2712,581.5547 Q2202.5056,581.8047 2202.5056,582.4141 L2202.5056,583.8672 Q2202.5056,584.4766 2202.2712,584.7422 Q2202.0368,585.0078 2201.6618,585.0078 Q2201.3181,585.0078 2201.1149,584.8047 Q2200.9118,584.6172 2200.8024,584.1016 Q2200.7556,583.7422 2200.5681,583.5547 Q2200.2399,583.1797 2199.6306,582.9609 Q2199.0212,582.7422 2198.3962,582.7422 Q2197.6306,582.7422 2196.9899,583.0703 Q2196.3649,583.3984 2195.8649,584.1484 Q2195.3806,584.8984 2195.3806,585.9297 L2195.3806,587.0234 Q2195.3806,588.2578 2196.2712,589.0859 Q2197.1618,589.8984 2198.7556,589.8984 Q2199.6931,589.8984 2200.3493,589.6484 Q2200.7399,589.4922 2201.1618,589.0547 Q2201.4274,588.7891 2201.5681,588.7109 Q2201.7243,588.6328 2201.9274,588.6328 Q2202.2556,588.6328 2202.5056,588.8984 Q2202.7712,589.1484 2202.7712,589.4922 Q2202.7712,589.8359 2202.4274,590.2422 Q2201.9274,590.8203 2201.1306,591.1484 Q2200.0524,591.6016 2198.7556,591.6016 Q2197.2399,591.6016 2196.0368,590.9766 Q2195.0524,590.4766 2194.3649,589.4141 Q2193.6774,588.3359 2193.6774,587.0547 L2193.6774,585.8984 Q2193.6774,584.5703 2194.2868,583.4297 Q2194.9118,582.2734 2196.0056,581.6641 Q2197.0993,581.0391 2198.3337,581.0391 Q2199.0681,581.0391 2199.7087,581.2109 Q2200.3649,581.3672 2200.9118,581.7266 Z " fill="#000000"/><text fill="#000000" font-family="sans-serif" font-size="12" font-style="italic" lengthAdjust="spacing" textLength="53.3555" x="2233.4515" y="581.957">&#171;Factory&#187;</text><text fill="#000000" font-family="sans-serif" font-size="14" lengthAdjust="spacing" textLength="83.2344" x="2218.512" y="599.127">UsersFactory</text><line style="stroke:#181818;stroke-width:0.5;" x1="2155.5" x2="2332.3926" y1="607.2031" y2="607.2031"/><line style="stroke:#181818;stroke-width:0.5;" x1="2155.5" x2="2332.3926" y1="615.2031" y2="615.2031"/><text fill="#000000" font-family="sans-serif" font-size="14" lengthAdjust="spacing" textLength="166.8926" x="2160.5" y="633.7363">+createUser(String, String)</text></g><!--class UseCases--><g class="entity" data-qualified-name="Business Layer.UseCases" data-source-line="45" id="ent0011"><rect fill="#F1F1F1" height="131.6563" rx="2.5" ry="2.5" style="stroke:#181818;stroke-width:0.5;" width="153.2373" x="458.5" y="769"/><ellipse cx="479.3825" cy="818.0234" fill="#B4A7E5" rx="11" ry="11" style="stroke:#181818;stroke-width:1;"/><path d="M480.3356,814.6641 L480.3356,821.3203 L482.0544,821.3203 Q482.6638,821.3203 482.9294,821.5547 Q483.195,821.7891 483.195,822.1797 Q483.195,822.5547 482.9294,822.7891 Q482.6638,823.0234 482.0544,823.0234 L476.9138,823.0234 Q476.3044,823.0234 476.0388,822.7891 Q475.7731,822.5547 475.7731,822.1641 Q475.7731,821.7891 476.0388,821.5547 Q476.3044,821.3203 476.9138,821.3203 L478.6325,821.3203 L478.6325,814.6641 L476.9138,814.6641 Q476.3044,814.6641 476.0388,814.4297 Q475.7731,814.1953 475.7731,813.8047 Q475.7731,813.4297 476.0388,813.1953 Q476.3044,812.9609 476.9138,812.9609 L482.0544,812.9609 Q482.6638,812.9609 482.9294,813.1953 Q483.195,813.4297 483.195,813.8047 Q483.195,814.1953 482.9294,814.4297 Q482.6638,814.6641 482.0544,814.6641 L480.3356,814.6641 Z " fill="#000000"/><text fill="#000000" font-family="sans-serif" font-size="14" font-style="italic" lengthAdjust="spacing" textLength="64.5791" x="516.4827" y="788.5332">UseCases</text><text fill="#000000" font-family="sans-serif" font-size="14" font-style="italic" lengthAdjust="spacing" textLength="101.1514" x="498.1966" y="806.1426">(MenuUseCase,</text><text fill="#000000" font-family="sans-serif" font-size="14" font-style="italic" lengthAdjust="spacing" textLength="97.2549" x="500.1448" y="823.752">OrderUseCase,</text><text fill="#000000" font-family="sans-serif" font-size="14" font-style="italic" lengthAdjust="spacing" textLength="108.165" x="494.6897" y="841.3613">KitchenUseCase,</text><text fill="#000000" font-family="sans-serif" font-size="14" font-style="italic" lengthAdjust="spacing" textLength="27.2275" x="535.1585" y="858.9707">etc.)</text><line style="stroke:#181818;stroke-width:0.5;" x1="459.5" x2="610.7373" y1="867.0469" y2="867.0469"/><line style="stroke:#181818;stroke-width:0.5;" x1="459.5" x2="610.7373" y1="875.0469" y2="875.0469"/><text fill="#000000" font-family="sans-serif" font-size="14" lengthAdjust="spacing" textLength="141.2373" x="464.5" y="893.5801">+businessOperations()</text></g><!--class Services--><g class="entity" data-qualified-name="Business Layer.Services" data-source-line="49" id="ent0012"><rect fill="#F1F1F1" height="114.0469" rx="2.5" ry="2.5" style="stroke:#181818;stroke-width:0.5;" width="129.2686" x="458.5" y="545.5"/><ellipse cx="473.5" cy="594.5234" fill="#ADD1B2" rx="11" ry="11" style="stroke:#181818;stroke-width:1;"/><path d="M476.2656,590.3984 Q476.4219,590.1797 476.6094,590.0703 Q476.7969,589.9609 477.0156,589.9609 Q477.3906,589.9609 477.625,590.2266 Q477.8594,590.4766 477.8594,591.0859 L477.8594,592.5391 Q477.8594,593.1484 477.625,593.4141 Q477.3906,593.6797 477.0156,593.6797 Q476.6719,593.6797 476.4688,593.4766 Q476.2656,593.2891 476.1563,592.7734 Q476.1094,592.4141 475.9219,592.2266 Q475.5938,591.8516 474.9844,591.6328 Q474.375,591.4141 473.75,591.4141 Q472.9844,591.4141 472.3438,591.7422 Q471.7188,592.0703 471.2188,592.8203 Q470.7344,593.5703 470.7344,594.6016 L470.7344,595.6953 Q470.7344,596.9297 471.625,597.7578 Q472.5156,598.5703 474.1094,598.5703 Q475.0469,598.5703 475.7031,598.3203 Q476.0938,598.1641 476.5156,597.7266 Q476.7813,597.4609 476.9219,597.3828 Q477.0781,597.3047 477.2813,597.3047 Q477.6094,597.3047 477.8594,597.5703 Q478.125,597.8203 478.125,598.1641 Q478.125,598.5078 477.7813,598.9141 Q477.2813,599.4922 476.4844,599.8203 Q475.4063,600.2734 474.1094,600.2734 Q472.5938,600.2734 471.3906,599.6484 Q470.4063,599.1484 469.7188,598.0859 Q469.0313,597.0078 469.0313,595.7266 L469.0313,594.5703 Q469.0313,593.2422 469.6406,592.1016 Q470.2656,590.9453 471.3594,590.3359 Q472.4531,589.7109 473.6875,589.7109 Q474.4219,589.7109 475.0625,589.8828 Q475.7188,590.0391 476.2656,590.3984 Z " fill="#000000"/><text fill="#000000" font-family="sans-serif" font-size="14" lengthAdjust="spacing" textLength="53.6826" x="509.293" y="565.0332">Services</text><text fill="#000000" font-family="sans-serif" font-size="14" lengthAdjust="spacing" textLength="90.2549" x="491.0068" y="582.6426">(MenuService,</text><text fill="#000000" font-family="sans-serif" font-size="14" lengthAdjust="spacing" textLength="86.3584" x="492.9551" y="600.252">OrderService,</text><text fill="#000000" font-family="sans-serif" font-size="14" lengthAdjust="spacing" textLength="97.2686" x="487.5" y="617.8613">KitchenService,</text><text fill="#000000" font-family="sans-serif" font-size="14" lengthAdjust="spacing" textLength="27.2275" x="522.5205" y="635.4707">etc.)</text><line style="stroke:#181818;stroke-width:0.5;" x1="459.5" x2="586.7686" y1="643.5469" y2="643.5469"/><line style="stroke:#181818;stroke-width:0.5;" x1="459.5" x2="586.7686" y1="651.5469" y2="651.5469"/></g><!--class SecurityService--><g class="entity" data-qualified-name="Business Layer.SecurityService" data-source-line="51" id="ent0013"><rect fill="#F1F1F1" height="100.8281" rx="2.5" ry="2.5" style="stroke:#181818;stroke-width:0.5;" width="136.8994" x="687.5" y="552"/><ellipse cx="705.94" cy="568" fill="#ADD1B2" rx="11" ry="11" style="stroke:#181818;stroke-width:1;"/><path d="M708.7057,563.875 Q708.8619,563.6563 709.0494,563.5469 Q709.2369,563.4375 709.4557,563.4375 Q709.8307,563.4375 710.065,563.7031 Q710.2994,563.9531 710.2994,564.5625 L710.2994,566.0156 Q710.2994,566.625 710.065,566.8906 Q709.8307,567.1563 709.4557,567.1563 Q709.1119,567.1563 708.9088,566.9531 Q708.7057,566.7656 708.5963,566.25 Q708.5494,565.8906 708.3619,565.7031 Q708.0338,565.3281 707.4244,565.1094 Q706.815,564.8906 706.19,564.8906 Q705.4244,564.8906 704.7838,565.2188 Q704.1588,565.5469 703.6588,566.2969 Q703.1744,567.0469 703.1744,568.0781 L703.1744,569.1719 Q703.1744,570.4063 704.065,571.2344 Q704.9557,572.0469 706.5494,572.0469 Q707.4869,572.0469 708.1432,571.7969 Q708.5338,571.6406 708.9557,571.2031 Q709.2213,570.9375 709.3619,570.8594 Q709.5182,570.7813 709.7213,570.7813 Q710.0494,570.7813 710.2994,571.0469 Q710.565,571.2969 710.565,571.6406 Q710.565,571.9844 710.2213,572.3906 Q709.7213,572.9688 708.9244,573.2969 Q707.8463,573.75 706.5494,573.75 Q705.0338,573.75 703.8307,573.125 Q702.8463,572.625 702.1588,571.5625 Q701.4713,570.4844 701.4713,569.2031 L701.4713,568.0469 Q701.4713,566.7188 702.0807,565.5781 Q702.7057,564.4219 703.7994,563.8125 Q704.8932,563.1875 706.1275,563.1875 Q706.8619,563.1875 707.5025,563.3594 Q708.1588,563.5156 708.7057,563.875 Z " fill="#000000"/><text fill="#000000" font-family="sans-serif" font-size="14" lengthAdjust="spacing" textLength="97.2549" x="720.7045" y="573.7285">SecurityService</text><line style="stroke:#181818;stroke-width:0.5;" x1="688.5" x2="823.3994" y1="584" y2="584"/><line style="stroke:#181818;stroke-width:0.5;" x1="688.5" x2="823.3994" y1="592" y2="592"/><text fill="#000000" font-family="sans-serif" font-size="14" lengthAdjust="spacing" textLength="93.7822" x="693.5" y="610.5332">+authenticate()</text><text fill="#000000" font-family="sans-serif" font-size="14" lengthAdjust="spacing" textLength="93.7412" x="693.5" y="628.1426">+registerUser()</text><text fill="#000000" font-family="sans-serif" font-size="14" lengthAdjust="spacing" textLength="124.8994" x="693.5" y="645.752">+changePassword()</text></g><!--class User--><g class="entity" data-qualified-name="Domain Layer.User" data-source-line="60" id="ent0015"><rect fill="#F1F1F1" height="100.8281" rx="2.5" ry="2.5" style="stroke:#181818;stroke-width:0.5;" width="164.1133" x="2143" y="1018.5"/><ellipse cx="2206.0273" cy="1034.5" fill="#A9DCDF" rx="11" ry="11" style="stroke:#181818;stroke-width:1;"/><path d="M2208.2148,1036.2656 L2204.0742,1036.2656 L2203.6523,1037.2969 L2204.0742,1037.2969 Q2204.6836,1037.2969 2204.9492,1037.5313 Q2205.2148,1037.7656 2205.2148,1038.1563 Q2205.2148,1038.5313 2204.9492,1038.7656 Q2204.6836,1039 2204.0742,1039 L2201.7773,1039 Q2201.168,1039 2200.918,1038.7656 Q2200.6523,1038.5313 2200.6523,1038.1406 Q2200.6523,1037.7656 2200.9336,1037.5313 Q2201.1992,1037.2813 2201.8242,1037.2969 L2204.4961,1030.6406 L2203.3867,1030.6406 Q2202.7773,1030.6406 2202.5117,1030.4063 Q2202.2461,1030.1719 2202.2461,1029.7813 Q2202.2461,1029.4063 2202.5117,1029.1719 Q2202.7773,1028.9375 2203.3867,1028.9375 L2207.0586,1028.9375 L2210.4492,1037.2969 Q2211.043,1037.2969 2211.2305,1037.4375 Q2211.6211,1037.7031 2211.6211,1038.1563 Q2211.6211,1038.5313 2211.3555,1038.7656 Q2211.1055,1039 2210.4961,1039 L2208.1992,1039 Q2207.5898,1039 2207.3242,1038.7656 Q2207.0586,1038.5313 2207.0586,1038.1406 Q2207.0586,1037.7656 2207.3242,1037.5313 Q2207.5898,1037.2969 2208.1992,1037.2969 L2208.6211,1037.2969 L2208.2148,1036.2656 Z M2207.4961,1034.5625 L2206.1367,1031.1875 L2204.7617,1034.5625 L2207.4961,1034.5625 Z " fill="#000000"/><text fill="#000000" font-family="sans-serif" font-size="14" font-style="italic" lengthAdjust="spacing" textLength="29.5586" x="2226.5273" y="1040.2285">User</text><line style="stroke:#181818;stroke-width:0.5;" x1="2144" x2="2306.1133" y1="1050.5" y2="1050.5"/><text fill="#000000" font-family="sans-serif" font-size="14" lengthAdjust="spacing" textLength="70.041" x="2149" y="1069.0332">#username</text><text fill="#000000" font-family="sans-serif" font-size="14" lengthAdjust="spacing" textLength="31.1309" x="2149" y="1086.6426">#role</text><line style="stroke:#181818;stroke-width:0.5;" x1="2144" x2="2306.1133" y1="1093.7188" y2="1093.7188"/><text fill="#000000" font-family="sans-serif" font-size="14" lengthAdjust="spacing" textLength="152.1133" x="2149" y="1112.252">+getWelcomeMessage()</text></g><!--class UserTypes--><g class="entity" data-qualified-name="Domain Layer.UserTypes" data-source-line="66" id="ent0016"><rect fill="#F1F1F1" height="96.4375" rx="2.5" ry="2.5" style="stroke:#181818;stroke-width:0.5;" width="125.3652" x="2181.5" y="787"/><ellipse cx="2196.5" cy="827.2188" fill="#ADD1B2" rx="11" ry="11" style="stroke:#181818;stroke-width:1;"/><path d="M2199.2656,823.0938 Q2199.4219,822.875 2199.6094,822.7656 Q2199.7969,822.6563 2200.0156,822.6563 Q2200.3906,822.6563 2200.625,822.9219 Q2200.8594,823.1719 2200.8594,823.7813 L2200.8594,825.2344 Q2200.8594,825.8438 2200.625,826.1094 Q2200.3906,826.375 2200.0156,826.375 Q2199.6719,826.375 2199.4688,826.1719 Q2199.2656,825.9844 2199.1563,825.4688 Q2199.1094,825.1094 2198.9219,824.9219 Q2198.5938,824.5469 2197.9844,824.3281 Q2197.375,824.1094 2196.75,824.1094 Q2195.9844,824.1094 2195.3438,824.4375 Q2194.7188,824.7656 2194.2188,825.5156 Q2193.7344,826.2656 2193.7344,827.2969 L2193.7344,828.3906 Q2193.7344,829.625 2194.625,830.4531 Q2195.5156,831.2656 2197.1094,831.2656 Q2198.0469,831.2656 2198.7031,831.0156 Q2199.0938,830.8594 2199.5156,830.4219 Q2199.7813,830.1563 2199.9219,830.0781 Q2200.0781,830 2200.2813,830 Q2200.6094,830 2200.8594,830.2656 Q2201.125,830.5156 2201.125,830.8594 Q2201.125,831.2031 2200.7813,831.6094 Q2200.2813,832.1875 2199.4844,832.5156 Q2198.4063,832.9688 2197.1094,832.9688 Q2195.5938,832.9688 2194.3906,832.3438 Q2193.4063,831.8438 2192.7188,830.7813 Q2192.0313,829.7031 2192.0313,828.4219 L2192.0313,827.2656 Q2192.0313,825.9375 2192.6406,824.7969 Q2193.2656,823.6406 2194.3594,823.0313 Q2195.4531,822.4063 2196.6875,822.4063 Q2197.4219,822.4063 2198.0625,822.5781 Q2198.7188,822.7344 2199.2656,823.0938 Z " fill="#000000"/><text fill="#000000" font-family="sans-serif" font-size="14" lengthAdjust="spacing" textLength="71.5723" x="2221.3965" y="806.5332">User Types</text><text fill="#000000" font-family="sans-serif" font-size="14" lengthAdjust="spacing" textLength="93.3652" x="2210.5" y="824.1426">(ManagerUser,</text><text fill="#000000" font-family="sans-serif" font-size="14" lengthAdjust="spacing" textLength="73.8965" x="2220.2344" y="841.752">WaiterUser,</text><text fill="#000000" font-family="sans-serif" font-size="14" lengthAdjust="spacing" textLength="80.917" x="2216.7241" y="859.3613">KitchenUser)</text><line style="stroke:#181818;stroke-width:0.5;" x1="2182.5" x2="2305.8652" y1="867.4375" y2="867.4375"/><line style="stroke:#181818;stroke-width:0.5;" x1="2182.5" x2="2305.8652" y1="875.4375" y2="875.4375"/></g><!--class MenuProduct--><g class="entity" data-qualified-name="Domain Layer.MenuProduct" data-source-line="68" id="ent0017"><rect fill="#F1F1F1" height="118.4375" rx="2.5" ry="2.5" style="stroke:#181818;stroke-width:0.5;" width="137.2822" x="1814.5" y="1235"/><ellipse cx="1839.4062" cy="1251" fill="#ADD1B2" rx="11" ry="11" style="stroke:#181818;stroke-width:1;"/><path d="M1842.1718,1246.875 Q1842.328,1246.6563 1842.5155,1246.5469 Q1842.703,1246.4375 1842.9218,1246.4375 Q1843.2968,1246.4375 1843.5312,1246.7031 Q1843.7655,1246.9531 1843.7655,1247.5625 L1843.7655,1249.0156 Q1843.7655,1249.625 1843.5312,1249.8906 Q1843.2968,1250.1563 1842.9218,1250.1563 Q1842.578,1250.1563 1842.3749,1249.9531 Q1842.1718,1249.7656 1842.0624,1249.25 Q1842.0155,1248.8906 1841.828,1248.7031 Q1841.4999,1248.3281 1840.8905,1248.1094 Q1840.2812,1247.8906 1839.6562,1247.8906 Q1838.8905,1247.8906 1838.2499,1248.2188 Q1837.6249,1248.5469 1837.1249,1249.2969 Q1836.6405,1250.0469 1836.6405,1251.0781 L1836.6405,1252.1719 Q1836.6405,1253.4063 1837.5312,1254.2344 Q1838.4218,1255.0469 1840.0155,1255.0469 Q1840.953,1255.0469 1841.6093,1254.7969 Q1841.9999,1254.6406 1842.4218,1254.2031 Q1842.6874,1253.9375 1842.828,1253.8594 Q1842.9843,1253.7813 1843.1874,1253.7813 Q1843.5155,1253.7813 1843.7655,1254.0469 Q1844.0312,1254.2969 1844.0312,1254.6406 Q1844.0312,1254.9844 1843.6874,1255.3906 Q1843.1874,1255.9688 1842.3905,1256.2969 Q1841.3124,1256.75 1840.0155,1256.75 Q1838.4999,1256.75 1837.2968,1256.125 Q1836.3124,1255.625 1835.6249,1254.5625 Q1834.9374,1253.4844 1834.9374,1252.2031 L1834.9374,1251.0469 Q1834.9374,1249.7188 1835.5468,1248.5781 Q1836.1718,1247.4219 1837.2655,1246.8125 Q1838.3593,1246.1875 1839.5937,1246.1875 Q1840.328,1246.1875 1840.9687,1246.3594 Q1841.6249,1246.5156 1842.1718,1246.875 Z " fill="#000000"/><text fill="#000000" font-family="sans-serif" font-size="14" lengthAdjust="spacing" textLength="83.2686" x="1855.6075" y="1256.7285">MenuProduct</text><line style="stroke:#181818;stroke-width:0.5;" x1="1815.5" x2="1950.7822" y1="1267" y2="1267"/><text fill="#000000" font-family="sans-serif" font-size="14" lengthAdjust="spacing" textLength="39.6826" x="1820.5" y="1285.5332">-nome</text><text fill="#000000" font-family="sans-serif" font-size="14" lengthAdjust="spacing" textLength="56.8135" x="1820.5" y="1303.1426">-tipologia</text><text fill="#000000" font-family="sans-serif" font-size="14" lengthAdjust="spacing" textLength="94.165" x="1820.5" y="1320.752">-prezzoVendita</text><text fill="#000000" font-family="sans-serif" font-size="14" lengthAdjust="spacing" textLength="125.2822" x="1820.5" y="1338.3613">-costoRealizzazione</text><line style="stroke:#181818;stroke-width:0.5;" x1="1815.5" x2="1950.7822" y1="1345.4375" y2="1345.4375"/></g><!--class Order--><g class="entity" data-qualified-name="Domain Layer.Order" data-source-line="75" id="ent0018"><rect fill="#F1F1F1" height="136.0469" rx="2.5" ry="2.5" style="stroke:#181818;stroke-width:0.5;" width="67.7861" x="2013" y="767"/><ellipse cx="2028" cy="783" fill="#ADD1B2" rx="11" ry="11" style="stroke:#181818;stroke-width:1;"/><path d="M2030.7656,778.875 Q2030.9219,778.6563 2031.1094,778.5469 Q2031.2969,778.4375 2031.5156,778.4375 Q2031.8906,778.4375 2032.125,778.7031 Q2032.3594,778.9531 2032.3594,779.5625 L2032.3594,781.0156 Q2032.3594,781.625 2032.125,781.8906 Q2031.8906,782.1563 2031.5156,782.1563 Q2031.1719,782.1563 2030.9688,781.9531 Q2030.7656,781.7656 2030.6563,781.25 Q2030.6094,780.8906 2030.4219,780.7031 Q2030.0938,780.3281 2029.4844,780.1094 Q2028.875,779.8906 2028.25,779.8906 Q2027.4844,779.8906 2026.8438,780.2188 Q2026.2188,780.5469 2025.7188,781.2969 Q2025.2344,782.0469 2025.2344,783.0781 L2025.2344,784.1719 Q2025.2344,785.4063 2026.125,786.2344 Q2027.0156,787.0469 2028.6094,787.0469 Q2029.5469,787.0469 2030.2031,786.7969 Q2030.5938,786.6406 2031.0156,786.2031 Q2031.2813,785.9375 2031.4219,785.8594 Q2031.5781,785.7813 2031.7813,785.7813 Q2032.1094,785.7813 2032.3594,786.0469 Q2032.625,786.2969 2032.625,786.6406 Q2032.625,786.9844 2032.2813,787.3906 Q2031.7813,787.9688 2030.9844,788.2969 Q2029.9063,788.75 2028.6094,788.75 Q2027.0938,788.75 2025.8906,788.125 Q2024.9063,787.625 2024.2188,786.5625 Q2023.5313,785.4844 2023.5313,784.2031 L2023.5313,783.0469 Q2023.5313,781.7188 2024.1406,780.5781 Q2024.7656,779.4219 2025.8594,778.8125 Q2026.9531,778.1875 2028.1875,778.1875 Q2028.9219,778.1875 2029.5625,778.3594 Q2030.2188,778.5156 2030.7656,778.875 Z " fill="#000000"/><text fill="#000000" font-family="sans-serif" font-size="14" lengthAdjust="spacing" textLength="35.7861" x="2042" y="788.7285">Order</text><line style="stroke:#181818;stroke-width:0.5;" x1="2014" x2="2079.7861" y1="799" y2="799"/><text fill="#000000" font-family="sans-serif" font-size="14" lengthAdjust="spacing" textLength="15.5586" x="2019" y="817.5332">-id</text><text fill="#000000" font-family="sans-serif" font-size="14" lengthAdjust="spacing" textLength="42.0205" x="2019" y="835.1426">-tavolo</text><text fill="#000000" font-family="sans-serif" font-size="14" lengthAdjust="spacing" textLength="55.248" x="2019" y="852.752">-dataOra</text><text fill="#000000" font-family="sans-serif" font-size="14" lengthAdjust="spacing" textLength="42.0137" x="2019" y="870.3613">-status</text><text fill="#000000" font-family="sans-serif" font-size="14" lengthAdjust="spacing" textLength="38.9102" x="2019" y="887.9707">-totale</text><line style="stroke:#181818;stroke-width:0.5;" x1="2014" x2="2079.7861" y1="895.0469" y2="895.0469"/></g><!--class OrderItem--><g class="entity" data-qualified-name="Domain Layer.OrderItem" data-source-line="83" id="ent0019"><rect fill="#F1F1F1" height="100.8281" rx="2.5" ry="2.5" style="stroke:#181818;stroke-width:0.5;" width="117.8408" x="1879" y="1018.5"/><ellipse cx="1904.2722" cy="1034.5" fill="#ADD1B2" rx="11" ry="11" style="stroke:#181818;stroke-width:1;"/><path d="M1907.0378,1030.375 Q1907.1941,1030.1563 1907.3816,1030.0469 Q1907.5691,1029.9375 1907.7878,1029.9375 Q1908.1628,1029.9375 1908.3972,1030.2031 Q1908.6316,1030.4531 1908.6316,1031.0625 L1908.6316,1032.5156 Q1908.6316,1033.125 1908.3972,1033.3906 Q1908.1628,1033.6563 1907.7878,1033.6563 Q1907.4441,1033.6563 1907.241,1033.4531 Q1907.0378,1033.2656 1906.9285,1032.75 Q1906.8816,1032.3906 1906.6941,1032.2031 Q1906.366,1031.8281 1905.7566,1031.6094 Q1905.1472,1031.3906 1904.5222,1031.3906 Q1903.7566,1031.3906 1903.116,1031.7188 Q1902.491,1032.0469 1901.991,1032.7969 Q1901.5066,1033.5469 1901.5066,1034.5781 L1901.5066,1035.6719 Q1901.5066,1036.9063 1902.3972,1037.7344 Q1903.2878,1038.5469 1904.8816,1038.5469 Q1905.8191,1038.5469 1906.4753,1038.2969 Q1906.866,1038.1406 1907.2878,1037.7031 Q1907.5535,1037.4375 1907.6941,1037.3594 Q1907.8503,1037.2813 1908.0535,1037.2813 Q1908.3816,1037.2813 1908.6316,1037.5469 Q1908.8972,1037.7969 1908.8972,1038.1406 Q1908.8972,1038.4844 1908.5535,1038.8906 Q1908.0535,1039.4688 1907.2566,1039.7969 Q1906.1785,1040.25 1904.8816,1040.25 Q1903.366,1040.25 1902.1628,1039.625 Q1901.1785,1039.125 1900.491,1038.0625 Q1899.8035,1036.9844 1899.8035,1035.7031 L1899.8035,1034.5469 Q1899.8035,1033.2188 1900.4128,1032.0781 Q1901.0378,1030.9219 1902.1316,1030.3125 Q1903.2253,1029.6875 1904.4597,1029.6875 Q1905.1941,1029.6875 1905.8347,1029.8594 Q1906.491,1030.0156 1907.0378,1030.375 Z " fill="#000000"/><text fill="#000000" font-family="sans-serif" font-size="14" lengthAdjust="spacing" textLength="63.0137" x="1920.5549" y="1040.2285">OrderItem</text><line style="stroke:#181818;stroke-width:0.5;" x1="1880" x2="1995.8408" y1="1050.5" y2="1050.5"/><text fill="#000000" font-family="sans-serif" font-size="14" lengthAdjust="spacing" textLength="51.3584" x="1885" y="1069.0332">-product</text><text fill="#000000" font-family="sans-serif" font-size="14" lengthAdjust="spacing" textLength="54.4824" x="1885" y="1086.6426">-quantita</text><text fill="#000000" font-family="sans-serif" font-size="14" lengthAdjust="spacing" textLength="105.8408" x="1885" y="1104.252">-prezzoSnapshot</text><line style="stroke:#181818;stroke-width:0.5;" x1="1880" x2="1995.8408" y1="1111.3281" y2="1111.3281"/></g><!--class KitchenPreferences--><g class="entity" data-qualified-name="Domain Layer.KitchenPreferences" data-source-line="89" id="ent0020"><rect fill="#F1F1F1" height="100.8281" rx="2.5" ry="2.5" style="stroke:#181818;stroke-width:0.5;" width="154.1787" x="1759" y="784.5"/><ellipse cx="1774" cy="800.5" fill="#ADD1B2" rx="11" ry="11" style="stroke:#181818;stroke-width:1;"/><path d="M1776.7656,796.375 Q1776.9219,796.1563 1777.1094,796.0469 Q1777.2969,795.9375 1777.5156,795.9375 Q1777.8906,795.9375 1778.125,796.2031 Q1778.3594,796.4531 1778.3594,797.0625 L1778.3594,798.5156 Q1778.3594,799.125 1778.125,799.3906 Q1777.8906,799.6563 1777.5156,799.6563 Q1777.1719,799.6563 1776.9688,799.4531 Q1776.7656,799.2656 1776.6563,798.75 Q1776.6094,798.3906 1776.4219,798.2031 Q1776.0938,797.8281 1775.4844,797.6094 Q1774.875,797.3906 1774.25,797.3906 Q1773.4844,797.3906 1772.8438,797.7188 Q1772.2188,798.0469 1771.7188,798.7969 Q1771.2344,799.5469 1771.2344,800.5781 L1771.2344,801.6719 Q1771.2344,802.9063 1772.125,803.7344 Q1773.0156,804.5469 1774.6094,804.5469 Q1775.5469,804.5469 1776.2031,804.2969 Q1776.5938,804.1406 1777.0156,803.7031 Q1777.2813,803.4375 1777.4219,803.3594 Q1777.5781,803.2813 1777.7813,803.2813 Q1778.1094,803.2813 1778.3594,803.5469 Q1778.625,803.7969 1778.625,804.1406 Q1778.625,804.4844 1778.2813,804.8906 Q1777.7813,805.4688 1776.9844,805.7969 Q1775.9063,806.25 1774.6094,806.25 Q1773.0938,806.25 1771.8906,805.625 Q1770.9063,805.125 1770.2188,804.0625 Q1769.5313,802.9844 1769.5313,801.7031 L1769.5313,800.5469 Q1769.5313,799.2188 1770.1406,798.0781 Q1770.7656,796.9219 1771.8594,796.3125 Q1772.9531,795.6875 1774.1875,795.6875 Q1774.9219,795.6875 1775.5625,795.8594 Q1776.2188,796.0156 1776.7656,796.375 Z " fill="#000000"/><text fill="#000000" font-family="sans-serif" font-size="14" lengthAdjust="spacing" textLength="122.1787" x="1788" y="806.2285">KitchenPreferences</text><line style="stroke:#181818;stroke-width:0.5;" x1="1760" x2="1912.1787" y1="816.5" y2="816.5"/><text fill="#000000" font-family="sans-serif" font-size="14" lengthAdjust="spacing" textLength="66.917" x="1765" y="835.0332">-username</text><text fill="#000000" font-family="sans-serif" font-size="14" lengthAdjust="spacing" textLength="124.5098" x="1765" y="852.6426">-selectedCategories</text><text fill="#000000" font-family="sans-serif" font-size="14" lengthAdjust="spacing" textLength="109.6895" x="1765" y="870.252">-splitMixedOrders</text><line style="stroke:#181818;stroke-width:0.5;" x1="1760" x2="1912.1787" y1="877.3281" y2="877.3281"/></g><!--class DatabaseService--><g class="entity" data-qualified-name="Data Access Layer.DatabaseService" data-source-line="98" id="ent0022"><rect fill="#F1F1F1" height="118.4375" rx="2.5" ry="2.5" style="stroke:#181818;stroke-width:0.5;" width="171.1406" x="881.5" y="776"/><ellipse cx="911.1373" cy="792" fill="#ADD1B2" rx="11" ry="11" style="stroke:#181818;stroke-width:1;"/><path d="M913.9029,787.875 Q914.0592,787.6563 914.2467,787.5469 Q914.4342,787.4375 914.6529,787.4375 Q915.0279,787.4375 915.2623,787.7031 Q915.4967,787.9531 915.4967,788.5625 L915.4967,790.0156 Q915.4967,790.625 915.2623,790.8906 Q915.0279,791.1563 914.6529,791.1563 Q914.3092,791.1563 914.1061,790.9531 Q913.9029,790.7656 913.7936,790.25 Q913.7467,789.8906 913.5592,789.7031 Q913.2311,789.3281 912.6217,789.1094 Q912.0123,788.8906 911.3873,788.8906 Q910.6217,788.8906 909.9811,789.2188 Q909.3561,789.5469 908.8561,790.2969 Q908.3717,791.0469 908.3717,792.0781 L908.3717,793.1719 Q908.3717,794.4063 909.2623,795.2344 Q910.1529,796.0469 911.7467,796.0469 Q912.6842,796.0469 913.3404,795.7969 Q913.7311,795.6406 914.1529,795.2031 Q914.4186,794.9375 914.5592,794.8594 Q914.7154,794.7813 914.9186,794.7813 Q915.2467,794.7813 915.4967,795.0469 Q915.7623,795.2969 915.7623,795.6406 Q915.7623,795.9844 915.4186,796.3906 Q914.9186,796.9688 914.1217,797.2969 Q913.0436,797.75 911.7467,797.75 Q910.2311,797.75 909.0279,797.125 Q908.0436,796.625 907.3561,795.5625 Q906.6686,794.4844 906.6686,793.2031 L906.6686,792.0469 Q906.6686,790.7188 907.2779,789.5781 Q907.9029,788.4219 908.9967,787.8125 Q910.0904,787.1875 911.3248,787.1875 Q912.0592,787.1875 912.6998,787.3594 Q913.3561,787.5156 913.9029,787.875 Z " fill="#000000"/><text fill="#000000" font-family="sans-serif" font-size="14" lengthAdjust="spacing" textLength="106.6133" x="928.39" y="797.7285">DatabaseService</text><line style="stroke:#181818;stroke-width:0.5;" x1="882.5" x2="1051.6406" y1="808" y2="808"/><line style="stroke:#181818;stroke-width:0.5;" x1="882.5" x2="1051.6406" y1="816" y2="816"/><text fill="#000000" font-family="sans-serif" font-size="14" lengthAdjust="spacing" textLength="107.7686" x="887.5" y="834.5332">+getAllProducts()</text><text fill="#000000" font-family="sans-serif" font-size="14" lengthAdjust="spacing" textLength="92.1963" x="887.5" y="852.1426">+createOrder()</text><text fill="#000000" font-family="sans-serif" font-size="14" lengthAdjust="spacing" textLength="95.3066" x="887.5" y="869.752">+getAllOrders()</text><text fill="#000000" font-family="sans-serif" font-size="14" lengthAdjust="spacing" textLength="159.1406" x="887.5" y="887.3613">+getKitchenPreferences()</text></g><!--class DAOs--><g class="entity" data-qualified-name="Data Access Layer.DAOs" data-source-line="105" id="ent0023"><rect fill="#F1F1F1" height="131.6563" rx="2.5" ry="2.5" style="stroke:#181818;stroke-width:0.5;" width="125.2305" x="884.5" y="1003"/><ellipse cx="900.4883" cy="1052.0234" fill="#B4A7E5" rx="11" ry="11" style="stroke:#181818;stroke-width:1;"/><path d="M901.4415,1048.6641 L901.4415,1055.3203 L903.1602,1055.3203 Q903.7696,1055.3203 904.0352,1055.5547 Q904.3008,1055.7891 904.3008,1056.1797 Q904.3008,1056.5547 904.0352,1056.7891 Q903.7696,1057.0234 903.1602,1057.0234 L898.0196,1057.0234 Q897.4102,1057.0234 897.1446,1056.7891 Q896.879,1056.5547 896.879,1056.1641 Q896.879,1055.7891 897.1446,1055.5547 Q897.4102,1055.3203 898.0196,1055.3203 L899.7383,1055.3203 L899.7383,1048.6641 L898.0196,1048.6641 Q897.4102,1048.6641 897.1446,1048.4297 Q896.879,1048.1953 896.879,1047.8047 Q896.879,1047.4297 897.1446,1047.1953 Q897.4102,1046.9609 898.0196,1046.9609 L903.1602,1046.9609 Q903.7696,1046.9609 904.0352,1047.1953 Q904.3008,1047.4297 904.3008,1047.8047 Q904.3008,1048.1953 904.0352,1048.4297 Q903.7696,1048.6641 903.1602,1048.6641 L901.4415,1048.6641 Z " fill="#000000"/><text fill="#000000" font-family="sans-serif" font-size="14" font-style="italic" lengthAdjust="spacing" textLength="37.3379" x="941.5561" y="1022.5332">DAOs</text><text fill="#000000" font-family="sans-serif" font-size="14" font-style="italic" lengthAdjust="spacing" textLength="74.6758" x="922.8872" y="1040.1426">(OrderDAO,</text><text fill="#000000" font-family="sans-serif" font-size="14" font-style="italic" lengthAdjust="spacing" textLength="82.4756" x="918.9873" y="1057.752">ProductDAO,</text><text fill="#000000" font-family="sans-serif" font-size="14" font-style="italic" lengthAdjust="spacing" textLength="91.0342" x="914.708" y="1075.3613">CategoryDAO,</text><text fill="#000000" font-family="sans-serif" font-size="14" font-style="italic" lengthAdjust="spacing" textLength="27.2275" x="946.6113" y="1092.9707">etc.)</text><line style="stroke:#181818;stroke-width:0.5;" x1="885.5" x2="1008.7305" y1="1101.0469" y2="1101.0469"/><line style="stroke:#181818;stroke-width:0.5;" x1="885.5" x2="1008.7305" y1="1109.0469" y2="1109.0469"/><text fill="#000000" font-family="sans-serif" font-size="14" lengthAdjust="spacing" textLength="113.2305" x="890.5" y="1127.5801">+dataOperations()</text></g><!--class DAOImpl--><g class="entity" data-qualified-name="Data Access Layer.DAOImpl" data-source-line="109" id="ent0024"><rect fill="#F1F1F1" height="96.4375" rx="2.5" ry="2.5" style="stroke:#181818;stroke-width:0.5;" width="168.9443" x="881.5" y="1246"/><ellipse cx="896.5" cy="1286.2188" fill="#ADD1B2" rx="11" ry="11" style="stroke:#181818;stroke-width:1;"/><path d="M899.2656,1282.0938 Q899.4219,1281.875 899.6094,1281.7656 Q899.7969,1281.6563 900.0156,1281.6563 Q900.3906,1281.6563 900.625,1281.9219 Q900.8594,1282.1719 900.8594,1282.7813 L900.8594,1284.2344 Q900.8594,1284.8438 900.625,1285.1094 Q900.3906,1285.375 900.0156,1285.375 Q899.6719,1285.375 899.4688,1285.1719 Q899.2656,1284.9844 899.1563,1284.4688 Q899.1094,1284.1094 898.9219,1283.9219 Q898.5938,1283.5469 897.9844,1283.3281 Q897.375,1283.1094 896.75,1283.1094 Q895.9844,1283.1094 895.3438,1283.4375 Q894.7188,1283.7656 894.2188,1284.5156 Q893.7344,1285.2656 893.7344,1286.2969 L893.7344,1287.3906 Q893.7344,1288.625 894.625,1289.4531 Q895.5156,1290.2656 897.1094,1290.2656 Q898.0469,1290.2656 898.7031,1290.0156 Q899.0938,1289.8594 899.5156,1289.4219 Q899.7813,1289.1563 899.9219,1289.0781 Q900.0781,1289 900.2813,1289 Q900.6094,1289 900.8594,1289.2656 Q901.125,1289.5156 901.125,1289.8594 Q901.125,1290.2031 900.7813,1290.6094 Q900.2813,1291.1875 899.4844,1291.5156 Q898.4063,1291.9688 897.1094,1291.9688 Q895.5938,1291.9688 894.3906,1291.3438 Q893.4063,1290.8438 892.7188,1289.7813 Q892.0313,1288.7031 892.0313,1287.4219 L892.0313,1286.2656 Q892.0313,1284.9375 892.6406,1283.7969 Q893.2656,1282.6406 894.3594,1282.0313 Q895.4531,1281.4063 896.6875,1281.4063 Q897.4219,1281.4063 898.0625,1281.5781 Q898.7188,1281.7344 899.2656,1282.0938 Z " fill="#000000"/><text fill="#000000" font-family="sans-serif" font-size="14" lengthAdjust="spacing" textLength="136.9443" x="910.5" y="1265.5332">DAO Implementations</text><text fill="#000000" font-family="sans-serif" font-size="14" lengthAdjust="spacing" textLength="129.9238" x="914.0103" y="1283.1426">(OrderDAOPostgres,</text><text fill="#000000" font-family="sans-serif" font-size="14" lengthAdjust="spacing" textLength="92.5723" x="932.686" y="1300.752">OrderDAOFile,</text><text fill="#000000" font-family="sans-serif" font-size="14" lengthAdjust="spacing" textLength="27.2275" x="965.3584" y="1318.3613">etc.)</text><line style="stroke:#181818;stroke-width:0.5;" x1="882.5" x2="1049.4443" y1="1326.4375" y2="1326.4375"/><line style="stroke:#181818;stroke-width:0.5;" x1="882.5" x2="1049.4443" y1="1334.4375" y2="1334.4375"/></g><!--class DBConfigStore--><g class="entity" data-qualified-name="Infrastructure.DBConfigStore" data-source-line="114" id="ent0026"><rect fill="#F1F1F1" height="100.8281" rx="2.5" ry="2.5" style="stroke:#181818;stroke-width:0.5;" width="125.3789" x="1109.5" y="1018.5"/><ellipse cx="1124.5" cy="1034.5" fill="#ADD1B2" rx="11" ry="11" style="stroke:#181818;stroke-width:1;"/><path d="M1127.2656,1030.375 Q1127.4219,1030.1563 1127.6094,1030.0469 Q1127.7969,1029.9375 1128.0156,1029.9375 Q1128.3906,1029.9375 1128.625,1030.2031 Q1128.8594,1030.4531 1128.8594,1031.0625 L1128.8594,1032.5156 Q1128.8594,1033.125 1128.625,1033.3906 Q1128.3906,1033.6563 1128.0156,1033.6563 Q1127.6719,1033.6563 1127.4688,1033.4531 Q1127.2656,1033.2656 1127.1563,1032.75 Q1127.1094,1032.3906 1126.9219,1032.2031 Q1126.5938,1031.8281 1125.9844,1031.6094 Q1125.375,1031.3906 1124.75,1031.3906 Q1123.9844,1031.3906 1123.3438,1031.7188 Q1122.7188,1032.0469 1122.2188,1032.7969 Q1121.7344,1033.5469 1121.7344,1034.5781 L1121.7344,1035.6719 Q1121.7344,1036.9063 1122.625,1037.7344 Q1123.5156,1038.5469 1125.1094,1038.5469 Q1126.0469,1038.5469 1126.7031,1038.2969 Q1127.0938,1038.1406 1127.5156,1037.7031 Q1127.7813,1037.4375 1127.9219,1037.3594 Q1128.0781,1037.2813 1128.2813,1037.2813 Q1128.6094,1037.2813 1128.8594,1037.5469 Q1129.125,1037.7969 1129.125,1038.1406 Q1129.125,1038.4844 1128.7813,1038.8906 Q1128.2813,1039.4688 1127.4844,1039.7969 Q1126.4063,1040.25 1125.1094,1040.25 Q1123.5938,1040.25 1122.3906,1039.625 Q1121.4063,1039.125 1120.7188,1038.0625 Q1120.0313,1036.9844 1120.0313,1035.7031 L1120.0313,1034.5469 Q1120.0313,1033.2188 1120.6406,1032.0781 Q1121.2656,1030.9219 1122.3594,1030.3125 Q1123.4531,1029.6875 1124.6875,1029.6875 Q1125.4219,1029.6875 1126.0625,1029.8594 Q1126.7188,1030.0156 1127.2656,1030.375 Z " fill="#000000"/><text fill="#000000" font-family="sans-serif" font-size="14" lengthAdjust="spacing" textLength="93.3789" x="1138.5" y="1040.2285">DBConfigStore</text><line style="stroke:#181818;stroke-width:0.5;" x1="1110.5" x2="1233.8789" y1="1050.5" y2="1050.5"/><line style="stroke:#181818;stroke-width:0.5;" x1="1110.5" x2="1233.8789" y1="1058.5" y2="1058.5"/><text fill="#000000" font-family="sans-serif" font-size="14" lengthAdjust="spacing" textLength="47.0723" x="1115.5" y="1077.0332">+save()</text><text fill="#000000" font-family="sans-serif" font-size="14" lengthAdjust="spacing" textLength="65.748" x="1115.5" y="1094.6426">+getHost()</text><text fill="#000000" font-family="sans-serif" font-size="14" lengthAdjust="spacing" textLength="98.4307" x="1115.5" y="1112.252">+getPassword()</text></g><!--class Preferences--><g class="entity" data-qualified-name="Infrastructure.Preferences" data-source-line="120" id="ent0027"><rect fill="#F1F1F1" height="78.8281" rx="2.5" ry="2.5" style="stroke:#181818;stroke-width:0.5;" width="194.6201" x="1334.5" y="1029.5"/><ellipse cx="1349.5" cy="1060.9141" fill="#ADD1B2" rx="11" ry="11" style="stroke:#181818;stroke-width:1;"/><path d="M1352.2656,1056.7891 Q1352.4219,1056.5703 1352.6094,1056.4609 Q1352.7969,1056.3516 1353.0156,1056.3516 Q1353.3906,1056.3516 1353.625,1056.6172 Q1353.8594,1056.8672 1353.8594,1057.4766 L1353.8594,1058.9297 Q1353.8594,1059.5391 1353.625,1059.8047 Q1353.3906,1060.0703 1353.0156,1060.0703 Q1352.6719,1060.0703 1352.4688,1059.8672 Q1352.2656,1059.6797 1352.1563,1059.1641 Q1352.1094,1058.8047 1351.9219,1058.6172 Q1351.5938,1058.2422 1350.9844,1058.0234 Q1350.375,1057.8047 1349.75,1057.8047 Q1348.9844,1057.8047 1348.3438,1058.1328 Q1347.7188,1058.4609 1347.2188,1059.2109 Q1346.7344,1059.9609 1346.7344,1060.9922 L1346.7344,1062.0859 Q1346.7344,1063.3203 1347.625,1064.1484 Q1348.5156,1064.9609 1350.1094,1064.9609 Q1351.0469,1064.9609 1351.7031,1064.7109 Q1352.0938,1064.5547 1352.5156,1064.1172 Q1352.7813,1063.8516 1352.9219,1063.7734 Q1353.0781,1063.6953 1353.2813,1063.6953 Q1353.6094,1063.6953 1353.8594,1063.9609 Q1354.125,1064.2109 1354.125,1064.5547 Q1354.125,1064.8984 1353.7813,1065.3047 Q1353.2813,1065.8828 1352.4844,1066.2109 Q1351.4063,1066.6641 1350.1094,1066.6641 Q1348.5938,1066.6641 1347.3906,1066.0391 Q1346.4063,1065.5391 1345.7188,1064.4766 Q1345.0313,1063.3984 1345.0313,1062.1172 L1345.0313,1060.9609 Q1345.0313,1059.6328 1345.6406,1058.4922 Q1346.2656,1057.3359 1347.3594,1056.7266 Q1348.4531,1056.1016 1349.6875,1056.1016 Q1350.4219,1056.1016 1351.0625,1056.2734 Q1351.7188,1056.4297 1352.2656,1056.7891 Z " fill="#000000"/><text fill="#000000" font-family="sans-serif" font-size="14" lengthAdjust="spacing" textLength="75.4824" x="1407.0688" y="1049.0332">Preferences</text><text fill="#000000" font-family="sans-serif" font-size="14" lengthAdjust="spacing" textLength="162.6201" x="1363.5" y="1066.6426">(SimpleGraphicsManager,</text><text fill="#000000" font-family="sans-serif" font-size="14" lengthAdjust="spacing" textLength="132.2822" x="1378.6689" y="1084.252">DemoModeManager)</text><line style="stroke:#181818;stroke-width:0.5;" x1="1335.5" x2="1528.1201" y1="1092.3281" y2="1092.3281"/><line style="stroke:#181818;stroke-width:0.5;" x1="1335.5" x2="1528.1201" y1="1100.3281" y2="1100.3281"/></g><g class="entity" data-qualified-name="GMN49" data-source-line="161" id="ent0050"><path d="M462,94 L462,112 L361.79,116 L462,120 L462,136.7031 A0,0 0 0 0 462,136.7031 L622.4834,136.7031 A0,0 0 0 0 622.4834,136.7031 L622.4834,104 L612.4834,94 L462,94 A0,0 0 0 0 462,94" fill="#FEFFDD" style="stroke:#181818;stroke-width:0.5;"/><path d="M612.4834,94 L612.4834,104 L622.4834,104 L612.4834,94" fill="#FEFFDD" style="stroke:#181818;stroke-width:0.5;"/><text fill="#000000" font-family="sans-serif" font-size="13" lengthAdjust="spacing" textLength="139.4834" x="468" y="112.4951">Coordina la navigazione</text><text fill="#000000" font-family="sans-serif" font-size="13" lengthAdjust="spacing" textLength="124.9917" x="468" y="128.8467">tra le varie schermate</text></g><g class="entity" data-qualified-name="GMN52" data-source-line="167" id="ent0053"><path d="M2406.5,813.5 L2406.5,856.2031 L2569.8652,856.2031 L2569.8652,823.5 L2559.8652,813.5 L2406.5,813.5" fill="#FEFFDD" style="stroke:#181818;stroke-width:0.5;"/><path d="M2559.8652,813.5 L2559.8652,823.5 L2569.8652,823.5 L2559.8652,813.5" fill="#FEFFDD" style="stroke:#181818;stroke-width:1;"/><text fill="#000000" font-family="sans-serif" font-size="13" lengthAdjust="spacing" textLength="83.0972" x="2412.5" y="831.9951">Business logic</text><text fill="#000000" font-family="sans-serif" font-size="13" lengthAdjust="spacing" textLength="142.3652" x="2412.5" y="848.3467">disaccoppiata dalla View</text></g><!--link SceneManager to ViewFactory--><g class="link" data-entity-1="ent0003" data-entity-2="ent0005" data-link-type="dependency" data-source-line="126" id="lnk28"><path codeLine="126" d="M242.25,189.05 C242.25,262.33 242.25,364 242.25,364 C242.25,364 199.15,364 156,364" fill="none" id="SceneManager-to-ViewFactory" style="stroke:#181818;stroke-width:1;"/><polygon fill="#181818" points="150,364,159,368,155,364,159,360,150,364" style="stroke:#181818;stroke-width:1;"/><text fill="#000000" font-family="sans-serif" font-size="13" lengthAdjust="spacing" textLength="42.6309" x="199.25" y="319.1451">creates</text></g><!--link ViewFactory to View--><g class="link" data-entity-1="ent0005" data-entity-2="ent0004" data-link-type="dependency" data-source-line="127" id="lnk29"><path codeLine="127" d="M86,410.72 C86,457.52 86,522 86,563.22" fill="none" id="ViewFactory-to-View" style="stroke:#181818;stroke-width:1;stroke-dasharray:7,7;"/><polygon fill="#181818" points="86,569.22,90,560.22,86,564.22,82,560.22,86,569.22" style="stroke:#181818;stroke-width:1;"/><text fill="#000000" font-family="sans-serif" font-size="13" lengthAdjust="spacing" textLength="42.6309" x="43" y="486.4651">creates</text></g><!--link Controllers to UserSession--><g class="link" data-entity-1="ent0006" data-entity-2="ent0008" data-link-type="dependency" data-source-line="128" id="lnk30"><path codeLine="128" d="M351.33,438.17 C351.33,487.08 351.33,542 351.33,542 C351.33,542 2055.52,542 2427.96,542" fill="none" id="Controllers-to-UserSession" style="stroke:#181818;stroke-width:1;"/><polygon fill="#181818" points="2433.96,542,2424.96,538,2428.96,542,2424.96,546,2433.96,542" style="stroke:#181818;stroke-width:1;"/><text fill="#000000" font-family="sans-serif" font-size="13" lengthAdjust="spacing" textLength="27.46" x="1312.73" y="538.4951">uses</text></g><!--link Controllers to UseCases--><g class="link" data-entity-1="ent0006" data-entity-2="ent0011" data-link-type="dependency" data-source-line="129" id="lnk31"><path codeLine="129" d="M300.67,438.21 C300.67,571.16 300.67,835 300.67,835 C300.67,835 383.93,835 452.27,835" fill="none" id="Controllers-to-UseCases" style="stroke:#181818;stroke-width:1;"/><polygon fill="#181818" points="458.27,835,449.27,831,453.27,835,449.27,839,458.27,835" style="stroke:#181818;stroke-width:1;"/><text fill="#000000" font-family="sans-serif" font-size="13" lengthAdjust="spacing" textLength="70.8335" x="229.67" y="711.9051">delegates to</text></g><!--link UserSession to User--><g class="link" data-entity-1="ent0008" data-entity-2="ent0015" data-link-type="dependency" data-source-line="132" id="lnk32"><path codeLine="132" d="M2433.94,665 C2335.07,665 2168,665 2168,665 C2168,665 2168,903.74 2168,1012.24" fill="none" id="UserSession-to-User" style="stroke:#181818;stroke-width:1;"/><polygon fill="#181818" points="2168,1018.24,2172,1009.24,2168,1013.24,2164,1009.24,2168,1018.24" style="stroke:#181818;stroke-width:1;"/><text fill="#000000" font-family="sans-serif" font-size="13" lengthAdjust="spacing" textLength="31.0781" x="2136" y="705.1451">holds</text></g><!--link UsersFactory to UserTypes--><g class="link" data-entity-1="ent0009" data-entity-2="ent0016" data-link-type="dependency" data-source-line="133" id="lnk33"><path codeLine="133" d="M2244,640.63 C2244,680.57 2244,737.4 2244,780.76" fill="none" id="UsersFactory-to-UserTypes" style="stroke:#181818;stroke-width:1;stroke-dasharray:7,7;"/><polygon fill="#181818" points="2244,786.76,2248,777.76,2244,781.76,2240,777.76,2244,786.76" style="stroke:#181818;stroke-width:1;"/><text fill="#000000" font-family="sans-serif" font-size="13" lengthAdjust="spacing" textLength="42.6309" x="2201" y="710.1951">creates</text></g><!--link Services to UseCases--><g class="link" data-entity-1="ent0012" data-entity-2="ent0011" data-link-type="extension" data-source-line="134" id="lnk34"><path codeLine="134" d="M544.5,659.67 C544.5,692.75 544.5,716.52 544.5,750.99" fill="none" id="Services-to-UseCases" style="stroke:#181818;stroke-width:1;stroke-dasharray:7,7;"/><polygon fill="none" points="544.5,768.99,550.5,750.99,538.5,750.99,544.5,768.99" style="stroke:#181818;stroke-width:1;"/><text fill="#000000" font-family="sans-serif" font-size="13" lengthAdjust="spacing" textLength="66.4663" x="477.5" y="710.8251">implements</text></g><!--link Services to Order--><g class="link" data-entity-1="ent0012" data-entity-2="ent0018" data-link-type="dependency" data-source-line="137" id="lnk35"><path codeLine="137" d="M587.55,578 C605.11,578 619.38,578 619.38,578 C619.38,578 619.38,773 619.38,773 C619.38,773 1789.66,773 2006.77,773" fill="none" id="Services-to-Order" style="stroke:#181818;stroke-width:1;"/><polygon fill="#181818" points="2012.77,773,2003.77,769,2007.77,773,2003.77,777,2012.77,773" style="stroke:#181818;stroke-width:1;"/><text fill="#000000" font-family="sans-serif" font-size="13" lengthAdjust="spacing" textLength="53.479" x="1148.66" y="769.4951">manages</text></g><!--link Services to MenuProduct--><g class="link" data-entity-1="ent0012" data-entity-2="ent0017" data-link-type="dependency" data-source-line="138" id="lnk36"><path codeLine="138" d="M587.77,628 C602.61,628 614.12,628 614.12,628 C614.12,628 614.12,1241 614.12,1241 C614.12,1241 1544.16,1241 1808.33,1241" fill="none" id="Services-to-MenuProduct" style="stroke:#181818;stroke-width:1;"/><polygon fill="#181818" points="1814.33,1241,1805.33,1237,1809.33,1241,1805.33,1245,1814.33,1241" style="stroke:#181818;stroke-width:1;"/><text fill="#000000" font-family="sans-serif" font-size="13" lengthAdjust="spacing" textLength="53.479" x="840.55" y="1237.4951">manages</text></g><!--link Services to KitchenPreferences--><g class="link" data-entity-1="ent0012" data-entity-2="ent0020" data-link-type="dependency" data-source-line="139" id="lnk37"><path codeLine="139" d="M501.5,659.74 C501.5,661.18 501.5,662 501.5,662 C501.5,662 1836,662 1836,662 C1836,662 1836,727.43 1836,778.5" fill="none" id="Services-to-KitchenPreferences" style="stroke:#181818;stroke-width:1;"/><polygon fill="#181818" points="1836,784.5,1840,775.5,1836,779.5,1832,775.5,1836,784.5" style="stroke:#181818;stroke-width:1;"/><text fill="#000000" font-family="sans-serif" font-size="13" lengthAdjust="spacing" textLength="53.479" x="1174.87" y="658.4951">manages</text></g><!--link SecurityService to User--><g class="link" data-entity-1="ent0013" data-entity-2="ent0015" data-link-type="dependency" data-source-line="140" id="lnk38"><path codeLine="140" d="M824.59,647 C1104.92,647 2148.75,647 2148.75,647 C2148.75,647 2148.75,899.86 2148.75,1012.1" fill="none" id="SecurityService-to-User" style="stroke:#181818;stroke-width:1;"/><polygon fill="#181818" points="2148.75,1018.1,2152.75,1009.1,2148.75,1013.1,2144.75,1009.1,2148.75,1018.1" style="stroke:#181818;stroke-width:1;"/><text fill="#000000" font-family="sans-serif" font-size="13" lengthAdjust="spacing" textLength="77.3335" x="1594.22" y="643.4951">authenticates</text></g><!--link Services to DatabaseService--><g class="link" data-entity-1="ent0012" data-entity-2="ent0022" data-link-type="dependency" data-source-line="143" id="lnk39"><path codeLine="143" d="M587.6,603 C603.84,603 616.75,603 616.75,603 C616.75,603 616.75,835 616.75,835 C616.75,835 771.63,835 875.32,835" fill="none" id="Services-to-DatabaseService" style="stroke:#181818;stroke-width:1;"/><polygon fill="#181818" points="881.32,835,872.32,831,876.32,835,872.32,839,881.32,835" style="stroke:#181818;stroke-width:1;"/><text fill="#000000" font-family="sans-serif" font-size="13" lengthAdjust="spacing" textLength="27.46" x="619.46" y="831.4951">uses</text></g><!--link DatabaseService to DAOs--><g class="link" data-entity-1="ent0022" data-entity-2="ent0023" data-link-type="dependency" data-source-line="144" id="lnk40"><path codeLine="144" d="M947,894.05 C947,927.22 947,962.7 947,996.95" fill="none" id="DatabaseService-to-DAOs" style="stroke:#181818;stroke-width:1;"/><polygon fill="#181818" points="947,1002.95,951,993.95,947,997.95,943,993.95,947,1002.95" style="stroke:#181818;stroke-width:1;"/><text fill="#000000" font-family="sans-serif" font-size="13" lengthAdjust="spacing" textLength="56.3799" x="890" y="944.9951">delegates</text></g><!--reverse link DAOs to DAOImpl--><g class="link" data-entity-1="ent0023" data-entity-2="ent0024" data-link-type="extension" data-source-line="145" id="lnk41"><path codeLine="145" d="M947,1153.29 C947,1188.68 947,1213.45 947,1245.67" fill="none" id="DAOs-backto-DAOImpl" style="stroke:#181818;stroke-width:1;stroke-dasharray:7,7;"/><polygon fill="none" points="947,1135.29,941,1153.29,953,1153.29,947,1135.29" style="stroke:#181818;stroke-width:1;"/><text fill="#000000" font-family="sans-serif" font-size="13" lengthAdjust="spacing" textLength="66.4663" x="880" y="1186.9751">implements</text></g><!--reverse link Order to OrderItem--><g class="link" data-entity-1="ent0018" data-entity-2="ent0019" data-link-type="composition" data-source-line="148" id="lnk42"><path codeLine="148" d="M2000.74,898 C1974.59,898 1955,898 1955,898 C1955,898 1955,967.75 1955,1018.16" fill="none" id="Order-backto-OrderItem" style="stroke:#181818;stroke-width:1;"/><polygon fill="#181818" points="2012.74,898,2006.74,894,2000.74,898,2006.74,902,2012.74,898" style="stroke:#181818;stroke-width:1;"/><text fill="#000000" font-family="sans-serif" font-size="13" lengthAdjust="spacing" textLength="7.23" x="1997.9978" y="906.8703">1</text><text fill="#000000" font-family="sans-serif" font-size="13" lengthAdjust="spacing" textLength="5.0591" x="1951.9631" y="1007.7837">*</text></g><!--link OrderItem to MenuProduct--><g class="link" data-entity-1="ent0019" data-entity-2="ent0017" data-link-type="dependency" data-source-line="149" id="lnk43"><path codeLine="149" d="M1915.25,1119.77 C1915.25,1153.86 1915.25,1192.9 1915.25,1228.65" fill="none" id="OrderItem-to-MenuProduct" style="stroke:#181818;stroke-width:1;"/><polygon fill="#181818" points="1915.25,1234.65,1919.25,1225.65,1915.25,1229.65,1911.25,1225.65,1915.25,1234.65" style="stroke:#181818;stroke-width:1;"/><text fill="#000000" font-family="sans-serif" font-size="13" lengthAdjust="spacing" textLength="5.0591" x="1907.0288" y="1140.8286">*</text><text fill="#000000" font-family="sans-serif" font-size="13" lengthAdjust="spacing" textLength="7.23" x="1911.5712" y="1224.3528">1</text></g><!--link UserTypes to User--><g class="link" data-entity-1="ent0016" data-entity-2="ent0015" data-link-type="extension" data-source-line="150" id="lnk44"><path codeLine="150" d="M2244,883.2 C2244,922.67 2244,960.34 2244,1000.43" fill="none" id="UserTypes-to-User" style="stroke:#181818;stroke-width:1;"/><polygon fill="none" points="2244,1018.43,2250,1000.43,2238,1000.43,2244,1018.43" style="stroke:#181818;stroke-width:1;"/></g><!--link DatabaseService to DBConfigStore--><g class="link" data-entity-1="ent0022" data-entity-2="ent0026" data-link-type="dependency" data-source-line="153" id="lnk45"><path codeLine="153" d="M1052.75,890 C1108.93,890 1172,890 1172,890 C1172,890 1172,959.26 1172,1012.18" fill="none" id="DatabaseService-to-DBConfigStore" style="stroke:#181818;stroke-width:1;"/><polygon fill="#181818" points="1172,1018.18,1176,1009.18,1172,1013.18,1168,1009.18,1172,1018.18" style="stroke:#181818;stroke-width:1;"/><text fill="#000000" font-family="sans-serif" font-size="13" lengthAdjust="spacing" textLength="78.0508" x="1093" y="890.9651">configured by</text></g><!--link Controllers to Preferences--><g class="link" data-entity-1="ent0006" data-entity-2="ent0027" data-link-type="dependency" data-source-line="154" id="lnk46"><path codeLine="154" d="M402.02,339 C651.9,339 1432,339 1432,339 C1432,339 1432,871.51 1432,1023.49" fill="none" id="Controllers-to-Preferences" style="stroke:#181818;stroke-width:1;"/><polygon fill="#181818" points="1432,1029.49,1436,1020.49,1432,1024.49,1428,1020.49,1432,1029.49" style="stroke:#181818;stroke-width:1;"/><text fill="#000000" font-family="sans-serif" font-size="13" lengthAdjust="spacing" textLength="32.519" x="1229.26" y="335.4951">reads</text></g><!--link SceneManager to Controllers--><g class="link" data-entity-1="ent0003" data-entity-2="ent0006" data-link-type="dependency" data-source-line="157" id="lnk47"><path codeLine="157" d="M305.75,189.24 C305.75,220.65 305.75,251.24 305.75,282.76" fill="none" id="SceneManager-to-Controllers" style="stroke:#181818;stroke-width:1;stroke-dasharray:7,7;"/><polygon fill="#181818" points="305.75,288.76,309.75,279.76,305.75,283.76,301.75,279.76,305.75,288.76" style="stroke:#181818;stroke-width:1;"/><text fill="#000000" font-family="sans-serif" font-size="13" lengthAdjust="spacing" textLength="53.479" x="251.75" y="235.4951">manages</text></g><!--link Controllers to SecurityService--><g class="link" data-entity-1="ent0006" data-entity-2="ent0013" data-link-type="dependency" data-source-line="158" id="lnk48"><path codeLine="158" d="M402.38,389 C525.94,389 756,389 756,389 C756,389 756,482.77 756,545.9" fill="none" id="Controllers-to-SecurityService" style="stroke:#181818;stroke-width:1;stroke-dasharray:7,7;"/><polygon fill="#181818" points="756,551.9,760,542.9,756,546.9,752,542.9,756,551.9" style="stroke:#181818;stroke-width:1;"/><text fill="#000000" font-family="sans-serif" font-size="13" lengthAdjust="spacing" textLength="54.1963" x="605.64" y="385.4951">login flow</text></g><!--link UseCases to GMN52--><g class="link" data-entity-1="ent0011" data-entity-2="ent0053" data-link-type="association" data-source-line="167" id="lnk54"><path d="M599.5,768.76 C599.5,741.86 599.5,717 599.5,717 C599.5,717 2420.25,717 2420.25,717 C2420.25,717 2420.25,779.29 2420.25,813.36" fill="none" id="UseCases-GMN52" style="stroke:#181818;stroke-width:1;stroke-dasharray:7,7;"/></g><?plantuml-src XLVRRjiu47tNLn3kmoRTEaWs6w0R904KNxP6uyImd1OBz8MHnZ8HcTIIT59xct_V8IMPf6otVZ2iqN1kvymChPuPBwcaIv8MLAbOQycULXf6gU09sm0vZTHMfM0SzBe48gHU2Ey55naeACdPgQykANzkfD5lvFhwcaocWsHmFujdeuTxSXV_CvWQSLJIz9dcG3eJYNQuffe9Jkxe6cI7l1jy75uC_YB_HGG_DaoIfC1XJ3aUakJggYU4p1YdMiYRcrhHV7vN2_5w9tB6Zuv3uHZugYtxIfa6sPP-PZfTmAw1odajVhFVzejnD3AdAP0l35xzO7BGKo7qxf4g9wC-f2dciCQKwbzXEdCXfwA0emHHulbny696d-51PXWIHd30HQSdk9QYA42gR_p8LiQ9FdpZLGa2KPr_83FL2mLLDG8PwFJak4Ee8fxNwAsXGZoPt8rw1vaGbsN1qXOHpeT_3Fi14HuLo0IKCcfNLmbMfG0jU52shb4YA_mAi1XnfIbFmKSMnKRP5wK5KEwvEGIVKL6_m2-LG3LO3nM47uWFvPkhpkrZCheV9Cc-qjok53OYkcpgCXmEpmUdjIF7lmuwwb451cg3MFs8q5YUkCSQOYTmq3Kc_2oUQlyF9KWBa3fKaqu2yeMbsmZgnoO2zrX7u0GkWiP4stO2wKeolQxV-m7IbKPZsj0dG5T2pfIscOSGBoZFOO9MNt6E7Es0qNyOnwEzBEsB9MMEeCFUuCz1hmw5FYajaGKUFxmWtna-She49y4MWO2ANw58nHB6M6lqTh38rl8Cvx8jSzM9HhRjv_h1mIotu4fxhctIO3MH8bjXz5uVSU65szMi50LE4Ef4fOJDHdm1dZ7jYLEXj9W2BTXcGpT86DYVYIM5xv1bdZlwWkxSSqOrVP2U5-nclLBU0Q5fyJDF8mrBtrjPPUm4_wueiaZl99XmMk8EqFjjrsN6LJO72JXW_ERfxi3ULL10gY7h8Ljp8HbuEIWSWdhClaDc8rOxp8ndCObxlGEJeeyr8d6Q1iFYV70nl0Y6g55xmYxVqqh8mhWeQYwee6diBAispd7xG1LjIxvRc9zjpqu_VZ24jgRmDnAu3gDwgCkrhfxSl337_0miJtuzgV0O6ItB0fRD_SDtFa46vtWtQIONYeQiWBPZOy21CxeVJkDaDdtipHwdWn2P4PzBYlC1qrb9CB2S3J-sBZdzMroSSvOdk4W2K1HzQM-jJnXWIxGppzefUq1WgWapsVyjQRbWgQh722ROXwKOu_skbbIvUaTTljF1dLtdoQVH9B7fuelWHgS5yVPw5DpYkjsRu0fqIIg6gSYNdfnKMjvhxtPXZVXNWakpzlUgL5ljacJOVRcnWy6PUFrx1uRRxDh8jzfumUCBKMJLI-M7k9siNfpD8aE57q48hA6TCW5ijpjwhzQBEsaSLqFoaYnjtLJuqX_S1rJsZ2TVCrogNgR-KjqDr0sQq5jxjDI0jCLMrJIk1qXa1LS_JawQrjgfLRr-9HHLnovOgQAgG9sp3ddVxPBE-uwRzf6R-qPkl1ezhsgHGwxRhM2InbFOh_lZ3zeLSRTFg9sHf_KE1SFw8qKocz5dM9Dv8LvLs1o6Kxu5XvWlDLfj12-9sT7S6eqYBZGGoVA59c8U_8l2mT3yYo859Po-i7oxg_4UGmeWBnIt4r587xb4X2BSyyHOZDg66tBZqIrBJ1Wf2ZAcQ9gAicI6Cnajq9lfQ6VjVm00?></g></svg>