<?plantuml 1.2026.2?><svg xmlns="http://www.w3.org/2000/svg" xmlns:xlink="http://www.w3.org/1999/xlink" contentStyleType="text/css" data-diagram-type="ACTIVITY" height="2271.5px" preserveAspectRatio="none" style="width:1032px;height:2271px;background:#FEFEFE;" version="1.1" viewBox="0 0 1032 2271" width="1032.9px" zoomAndPan="magnify"><defs/><g><rect fill="#FEFEFE" height="2271.5" style="stroke:none;stroke-width:1.1;" width="1032.9" x="0" y="0"/><ellipse cx="356.4248" cy="22" fill="#27AE60" rx="11" ry="11" style="stroke:#222222;stroke-width:1.1;"/><rect fill="#ECF0F1" height="39.557" rx="13.75" ry="13.75" style="stroke:#2C3E50;stroke-width:0.55;" width="137.1777" x="287.836" y="103.4"/><text fill="#000000" font-family="sans-serif" font-size="13.2" lengthAdjust="spacing" textLength="115.1777" x="298.836" y="128.6441">Waiter selects table</text><rect fill="#555555" height="6.6" rx="2.75" ry="2.75" style="stroke:#555555;stroke-width:1.1;" width="576.6299" x="68.1099" y="164.957"/><rect fill="#ECF0F1" height="39.557" rx="13.75" ry="13.75" style="stroke:#2C3E50;stroke-width:0.55;" width="193.7096" x="83.5099" y="202.3355"/><text fill="#000000" font-family="sans-serif" font-size="13.2" lengthAdjust="spacing" textLength="171.7096" x="94.5099" y="227.5797">Load products from database</text><rect fill="#ECF0F1" height="57.1141" rx="13.75" ry="13.75" style="stroke:#2C3E50;stroke-width:0.55;" width="141.5799" x="308.0195" y="193.557"/><text fill="#000000" font-family="sans-serif" font-size="13.2" lengthAdjust="spacing" textLength="119.5799" x="319.0195" y="218.8012">Initialize search filter</text><text fill="#000000" font-family="sans-serif" font-size="13.2" lengthAdjust="spacing" textLength="95.4035" x="319.0195" y="236.3582">with debouncing</text><rect fill="#ECF0F1" height="39.557" rx="13.75" ry="13.75" style="stroke:#2C3E50;stroke-width:0.55;" width="148.9404" x="480.3994" y="202.3355"/><text fill="#000000" font-family="sans-serif" font-size="13.2" lengthAdjust="spacing" textLength="126.9404" x="491.3994" y="227.5797">Setup UI components</text><rect fill="#555555" height="6.6" rx="2.75" ry="2.75" style="stroke:#555555;stroke-width:1.1;" width="576.6299" x="68.1099" y="272.6711"/><path d="M454.3646,338.6711 L454.3646,377.8113 L432.3646,382.2113 L454.3646,386.6113 L454.3646,425.7516 A0,0 0 0 0 454.3646,425.7516 L622.9084,425.7516 A0,0 0 0 0 622.9084,425.7516 L622.9084,349.6711 L611.9084,338.6711 L454.3646,338.6711 A0,0 0 0 0 454.3646,338.6711" fill="#FFF9E6" style="stroke:#F39C12;stroke-width:0.55;"/><path d="M611.9084,338.6711 L611.9084,349.6711 L622.9084,349.6711 L611.9084,338.6711" fill="#FFF9E6" style="stroke:#F39C12;stroke-width:0.55;"/><text fill="#000000" font-family="sans-serif" font-size="14.3" lengthAdjust="spacing" textLength="108.8909" x="460.9646" y="359.6022">Products display:</text><text fill="#000000" font-family="sans-serif" font-size="14.3" lengthAdjust="spacing" textLength="133.5318" x="460.9646" y="378.6224">- Name and category</text><text fill="#000000" font-family="sans-serif" font-size="14.3" lengthAdjust="spacing" textLength="69.133" x="460.9646" y="397.6425">- Unit price</text><text fill="#000000" font-family="sans-serif" font-size="14.3" lengthAdjust="spacing" textLength="145.4438" x="460.9646" y="416.6626">- Add/Remove controls</text><rect fill="#ECF0F1" height="57.1141" rx="13.75" ry="13.75" style="stroke:#2C3E50;stroke-width:0.55;" width="151.8795" x="280.4851" y="353.6543"/><text fill="#000000" font-family="sans-serif" font-size="13.2" lengthAdjust="spacing" textLength="79.967" x="291.4851" y="378.8984">Display menu</text><text fill="#000000" font-family="sans-serif" font-size="13.2" lengthAdjust="spacing" textLength="129.8795" x="291.4851" y="396.4555">organized by category</text><rect fill="none" height="836.1998" style="stroke:#000000;stroke-width:1.65;" width="959.6587" x="12.1" y="436.7516"/><path d="M152.3382,436.7516 L152.3382,449.5348 L141.3382,460.5348 L12.1,460.5348" fill="none" style="stroke:#000000;stroke-width:1.65;"/><text fill="#000000" font-family="sans-serif" font-size="15.4" lengthAdjust="spacing" textLength="129.2382" x="15.4" y="454.4697">Order Composition</text><polygon fill="#F39C12" points="303.2953,527.6348,409.5544,527.6348,422.7544,540.8348,409.5544,554.0348,303.2953,554.0348,290.0953,540.8348,303.2953,527.6348" style="stroke:#E67E22;stroke-width:0.55;"/><text fill="#000000" font-family="sans-serif" font-size="12.1" lengthAdjust="spacing" textLength="106.259" x="303.2953" y="545.8449">Search filter active?</text><text fill="#000000" font-family="sans-serif" font-size="12.1" lengthAdjust="spacing" textLength="18.8294" x="271.2659" y="537.7979">yes</text><text fill="#000000" font-family="sans-serif" font-size="12.1" lengthAdjust="spacing" textLength="13.4589" x="422.7544" y="537.7979">no</text><rect fill="#ECF0F1" height="39.557" rx="13.75" ry="13.75" style="stroke:#2C3E50;stroke-width:0.55;" width="121.7799" x="124.5477" y="565.0348"/><text fill="#000000" font-family="sans-serif" font-size="13.2" lengthAdjust="spacing" textLength="99.7799" x="135.5477" y="590.2789">Enter search text</text><path d="M269.4394,640.1388 L269.4394,650.7488 L247.4394,655.1488 L269.4394,659.5488 L269.4394,670.1589 A0,0 0 0 0 269.4394,670.1589 L437.1873,670.1589 A0,0 0 0 0 437.1873,670.1589 L437.1873,651.1388 L426.1873,640.1388 L269.4394,640.1388 A0,0 0 0 0 269.4394,640.1388" fill="#FFF9E6" style="stroke:#F39C12;stroke-width:0.55;"/><path d="M426.1873,640.1388 L426.1873,651.1388 L437.1873,651.1388 L426.1873,640.1388" fill="#FFF9E6" style="stroke:#F39C12;stroke-width:0.55;"/><text fill="#000000" font-family="sans-serif" font-size="14.3" lengthAdjust="spacing" textLength="144.6479" x="276.0394" y="661.0699">sostituire con clessidra</text><rect fill="#98FB98" height="57.1141" rx="13.75" ry="13.75" style="stroke:#2C3E50;stroke-width:0.55;" width="124.0035" x="123.4359" y="626.5918"/><text fill="#000000" font-family="sans-serif" font-size="13.2" lengthAdjust="spacing" textLength="69.6867" x="134.4359" y="651.8359">Wait 300ms</text><text fill="#000000" font-family="sans-serif" font-size="13.2" lengthAdjust="spacing" textLength="102.0035" x="134.4359" y="669.393">(debounce delay)</text><rect fill="#ECF0F1" height="39.557" rx="13.75" ry="13.75" style="stroke:#2C3E50;stroke-width:0.55;" width="155.5082" x="107.6836" y="705.7059"/><text fill="#000000" font-family="sans-serif" font-size="13.2" lengthAdjust="spacing" textLength="133.5082" x="118.6836" y="730.95">System filters products</text><rect fill="#ECF0F1" height="39.557" rx="13.75" ry="13.75" style="stroke:#2C3E50;stroke-width:0.55;" width="136.4494" x="459.1873" y="565.0348"/><text fill="#000000" font-family="sans-serif" font-size="13.2" lengthAdjust="spacing" textLength="114.4494" x="470.1873" y="590.2789">Display all products</text><polygon fill="#F39C12" points="356.4248,751.8629,369.6248,765.0629,356.4248,778.2629,343.2248,765.0629,356.4248,751.8629" style="stroke:#E67E22;stroke-width:0.55;"/><rect fill="#ECF0F1" height="39.557" rx="13.75" ry="13.75" style="stroke:#2C3E50;stroke-width:0.55;" width="106.382" x="303.2338" y="800.2629"/><text fill="#000000" font-family="sans-serif" font-size="13.2" lengthAdjust="spacing" textLength="84.382" x="314.2338" y="825.507">Select product</text><polygon fill="#F39C12" points="326.4909,861.8199,386.3588,861.8199,399.5588,875.0199,386.3588,888.2199,326.4909,888.2199,313.2909,875.0199,326.4909,861.8199" style="stroke:#E67E22;stroke-width:0.55;"/><text fill="#000000" font-family="sans-serif" font-size="12.1" lengthAdjust="spacing" textLength="59.8678" x="326.4909" y="880.0301">Operation?</text><text fill="#000000" font-family="sans-serif" font-size="12.1" lengthAdjust="spacing" textLength="21.5295" x="291.7614" y="871.9831">Add</text><text fill="#000000" font-family="sans-serif" font-size="12.1" lengthAdjust="spacing" textLength="45.056" x="399.5588" y="871.9831">Remove</text><polygon fill="#F39C12" points="114.7953,899.2199,242.5838,899.2199,255.7838,912.4199,242.5838,925.6199,114.7953,925.6199,101.5953,912.4199,114.7953,899.2199" style="stroke:#E67E22;stroke-width:0.55;"/><text fill="#000000" font-family="sans-serif" font-size="12.1" lengthAdjust="spacing" textLength="127.7885" x="114.7953" y="917.4301">Product already in cart?</text><text fill="#000000" font-family="sans-serif" font-size="12.1" lengthAdjust="spacing" textLength="18.8294" x="82.7659" y="909.3831">yes</text><text fill="#000000" font-family="sans-serif" font-size="12.1" lengthAdjust="spacing" textLength="13.4589" x="255.7838" y="909.3831">no</text><rect fill="#ECF0F1" height="39.557" rx="13.75" ry="13.75" style="stroke:#2C3E50;stroke-width:0.55;" width="130.5906" x="25.3" y="936.6199"/><text fill="#000000" font-family="sans-serif" font-size="13.2" lengthAdjust="spacing" textLength="108.5906" x="36.3" y="961.8641">Increment quantity</text><rect fill="#ECF0F1" height="57.1141" rx="13.75" ry="13.75" style="stroke:#2C3E50;stroke-width:0.55;" width="142.3211" x="195.6233" y="936.6199"/><text fill="#000000" font-family="sans-serif" font-size="13.2" lengthAdjust="spacing" textLength="120.3211" x="206.6233" y="961.8641">Add new item to cart</text><text fill="#000000" font-family="sans-serif" font-size="13.2" lengthAdjust="spacing" textLength="77.4082" x="206.6233" y="979.4211">(quantity = 1)</text><polygon fill="#F39C12" points="178.6896,1000.334,191.8896,1013.534,178.6896,1026.734,165.4896,1013.534,178.6896,1000.334" style="stroke:#E67E22;stroke-width:0.55;"/><polygon fill="#F39C12" points="498.0049,899.2199,570.3154,899.2199,583.5154,912.4199,570.3154,925.6199,498.0049,925.6199,484.8049,912.4199,498.0049,899.2199" style="stroke:#E67E22;stroke-width:0.55;"/><text fill="#000000" font-family="sans-serif" font-size="12.1" lengthAdjust="spacing" textLength="72.3105" x="498.0049" y="917.4301">Quantity &gt; 1?</text><text fill="#000000" font-family="sans-serif" font-size="12.1" lengthAdjust="spacing" textLength="18.8294" x="465.9754" y="909.3831">yes</text><text fill="#000000" font-family="sans-serif" font-size="12.1" lengthAdjust="spacing" textLength="13.4589" x="583.5154" y="909.3831">no</text><rect fill="#ECF0F1" height="39.557" rx="13.75" ry="13.75" style="stroke:#2C3E50;stroke-width:0.55;" width="136.4559" x="381.9444" y="936.6199"/><text fill="#000000" font-family="sans-serif" font-size="13.2" lengthAdjust="spacing" textLength="114.4559" x="392.9444" y="961.8641">Decrement quantity</text><path d="M717.8956,936.6199 L717.8956,966.2501 L695.8956,970.6501 L717.8956,975.0501 L717.8956,1004.6803 A0,0 0 0 0 717.8956,1004.6803 L938.7587,1004.6803 A0,0 0 0 0 938.7587,1004.6803 L938.7587,947.6199 L927.7587,936.6199 L717.8956,936.6199 A0,0 0 0 0 717.8956,936.6199" fill="#FFF9E6" style="stroke:#F39C12;stroke-width:0.55;"/><path d="M927.7587,936.6199 L927.7587,947.6199 L938.7587,947.6199 L927.7587,936.6199" fill="#FFF9E6" style="stroke:#F39C12;stroke-width:0.55;"/><text fill="#000000" font-family="sans-serif" font-size="14.3" lengthAdjust="spacing" textLength="190.7807" x="724.4956" y="957.5511">If the quantity is equal to zero,</text><text fill="#000000" font-family="sans-serif" font-size="14.3" lengthAdjust="spacing" textLength="197.7631" x="724.4956" y="976.5712">the "Remove" operation cannot</text><text fill="#000000" font-family="sans-serif" font-size="14.3" lengthAdjust="spacing" textLength="89.0259" x="724.4956" y="995.5913">be performed.</text><rect fill="#ECF0F1" height="39.557" rx="13.75" ry="13.75" style="stroke:#2C3E50;stroke-width:0.55;" width="155.4953" x="540.4002" y="950.8716"/><text fill="#000000" font-family="sans-serif" font-size="13.2" lengthAdjust="spacing" textLength="133.4953" x="551.4002" y="976.1157">Remove item from cart</text><polygon fill="#F39C12" points="534.1601,1011.2803,547.3601,1024.4803,534.1601,1037.6803,520.9601,1024.4803,534.1601,1011.2803" style="stroke:#E67E22;stroke-width:0.55;"/><polygon fill="#F39C12" points="356.4248,1044.2803,369.6248,1057.4803,356.4248,1070.6803,343.2248,1057.4803,356.4248,1044.2803" style="stroke:#E67E22;stroke-width:0.55;"/><rect fill="#ECF0F1" height="39.557" rx="13.75" ry="13.75" style="stroke:#2C3E50;stroke-width:0.55;" width="118.8537" x="296.998" y="1092.6803"/><text fill="#000000" font-family="sans-serif" font-size="13.2" lengthAdjust="spacing" textLength="96.8537" x="307.998" y="1117.9244">Update cart total</text><rect fill="#ECF0F1" height="57.1141" rx="13.75" ry="13.75" style="stroke:#2C3E50;stroke-width:0.55;" width="157.0293" x="277.9102" y="1154.2373"/><text fill="#000000" font-family="sans-serif" font-size="13.2" lengthAdjust="spacing" textLength="113.7146" x="288.9102" y="1179.4814">Refresh product list</text><text fill="#000000" font-family="sans-serif" font-size="13.2" lengthAdjust="spacing" textLength="135.0293" x="288.9102" y="1197.0385">with updated quantities</text><polygon fill="#F39C12" points="356.4248,479.2348,369.6248,492.4348,356.4248,505.6348,343.2248,492.4348,356.4248,479.2348" style="stroke:#E67E22;stroke-width:0.55;"/><polygon fill="#F39C12" points="303.2835,1233.3514,409.5662,1233.3514,422.7662,1246.5514,409.5662,1259.7514,303.2835,1259.7514,290.0835,1246.5514,303.2835,1233.3514" style="stroke:#E67E22;stroke-width:0.55;"/><text fill="#000000" font-family="sans-serif" font-size="12.1" lengthAdjust="spacing" textLength="106.2827" x="303.2835" y="1251.5615">Continue selecting?</text><text fill="#000000" font-family="sans-serif" font-size="12.1" lengthAdjust="spacing" textLength="18.8294" x="422.7662" y="1243.5146">yes</text><polygon fill="#F39C12" points="356.4248,301.2711,369.6248,314.4711,356.4248,327.6711,343.2248,314.4711,356.4248,301.2711" style="stroke:#E67E22;stroke-width:0.55;"/><polygon fill="#F39C12" points="323.4748,1317.0115,389.3749,1317.0115,402.5749,1330.2115,389.3749,1343.4115,323.4748,1343.4115,310.2748,1330.2115,323.4748,1317.0115" style="stroke:#E67E22;stroke-width:0.55;"/><text fill="#000000" font-family="sans-serif" font-size="12.1" lengthAdjust="spacing" textLength="65.9001" x="323.4748" y="1335.2217">Cart empty?</text><text fill="#000000" font-family="sans-serif" font-size="12.1" lengthAdjust="spacing" textLength="18.8294" x="402.5749" y="1327.1747">yes</text><rect fill="#ECF0F1" height="39.557" rx="13.75" ry="13.75" style="stroke:#2C3E50;stroke-width:0.55;" width="127.1875" x="292.8311" y="1391.1423"/><text fill="#000000" font-family="sans-serif" font-size="13.2" lengthAdjust="spacing" textLength="105.1875" x="303.8311" y="1416.3864">Click "Send Order</text><rect fill="none" height="215.6408" style="stroke:#000000;stroke-width:1.65;" width="447.3364" x="266.575" y="1441.6993"/><path d="M371.712,1441.6993 L371.712,1454.4825 L360.712,1465.4825 L266.575,1465.4825" fill="none" style="stroke:#000000;stroke-width:1.65;"/><text fill="#000000" font-family="sans-serif" font-size="15.4" lengthAdjust="spacing" textLength="94.137" x="269.875" y="1459.4175">Order Review</text><path d="M457.2746,1476.4825 L457.2746,1525.1328 L435.2746,1529.5328 L457.2746,1533.9328 L457.2746,1582.5831 A0,0 0 0 0 457.2746,1582.5831 L702.9114,1582.5831 A0,0 0 0 0 702.9114,1582.5831 L702.9114,1487.4825 L691.9114,1476.4825 L457.2746,1476.4825 A0,0 0 0 0 457.2746,1476.4825" fill="#FFF9E6" style="stroke:#F39C12;stroke-width:0.55;"/><path d="M691.9114,1476.4825 L691.9114,1487.4825 L702.9114,1487.4825 L691.9114,1476.4825" fill="#FFF9E6" style="stroke:#F39C12;stroke-width:0.55;"/><text fill="#000000" font-family="sans-serif" font-size="14.3" lengthAdjust="spacing" textLength="109.6589" x="463.8746" y="1497.4137">Summary shows:</text><text fill="#000000" font-family="sans-serif" font-size="14.3" lengthAdjust="spacing" textLength="96.9649" x="463.8746" y="1516.4338">- Table number</text><text fill="#000000" font-family="sans-serif" font-size="14.3" lengthAdjust="spacing" textLength="222.5368" x="463.8746" y="1535.4539">- Item list with quantities and prices</text><text fill="#000000" font-family="sans-serif" font-size="14.3" lengthAdjust="spacing" textLength="92.1959" x="463.8746" y="1554.474">- Total amount</text><text fill="#000000" font-family="sans-serif" font-size="14.3" lengthAdjust="spacing" textLength="131.1578" x="463.8746" y="1573.4941">- Optional notes field</text><rect fill="#ECF0F1" height="39.557" rx="13.75" ry="13.75" style="stroke:#2C3E50;stroke-width:0.55;" width="157.6996" x="277.575" y="1509.7543"/><text fill="#000000" font-family="sans-serif" font-size="13.2" lengthAdjust="spacing" textLength="135.6996" x="288.575" y="1534.9984">Display order summary</text><rect fill="#ECF0F1" height="39.557" rx="13.75" ry="13.75" style="stroke:#2C3E50;stroke-width:0.55;" width="136.4816" x="288.184" y="1604.5831"/><text fill="#000000" font-family="sans-serif" font-size="13.2" lengthAdjust="spacing" textLength="114.4816" x="299.184" y="1629.8272">Optional: add notes</text><polygon fill="#F39C12" points="356.4248,55,369.6248,68.2,356.4248,81.4,343.2248,68.2,356.4248,55" style="stroke:#E67E22;stroke-width:0.55;"/><polygon fill="#F39C12" points="316.0777,1679.3401,396.772,1679.3401,409.972,1692.5401,396.772,1705.7401,316.0777,1705.7401,302.8777,1692.5401,316.0777,1679.3401" style="stroke:#E67E22;stroke-width:0.55;"/><text fill="#000000" font-family="sans-serif" font-size="12.1" lengthAdjust="spacing" textLength="80.6942" x="316.0777" y="1697.5503">Confirm order?</text><text fill="#000000" font-family="sans-serif" font-size="12.1" lengthAdjust="spacing" textLength="104.9179" x="409.972" y="1689.5033">Close review dialog</text><rect fill="#ADD8E6" height="296.8851" style="stroke:#000000;stroke-width:1.65;" width="261.4455" x="238.9021" y="1732.2293"/><path d="M366.312,1732.2293 L366.312,1745.0125 L355.312,1756.0125 L238.9021,1756.0125" fill="none" style="stroke:#000000;stroke-width:1.65;"/><text fill="#000000" font-family="sans-serif" font-size="15.4" lengthAdjust="spacing" textLength="116.4099" x="242.2021" y="1749.9475">Persistence level</text><rect fill="#ECF0F1" height="57.1141" rx="13.75" ry="13.75" style="stroke:#2C3E50;stroke-width:0.55;" width="213.0455" x="249.9021" y="1823.1125"/><text fill="#000000" font-family="sans-serif" font-size="13.2" lengthAdjust="spacing" textLength="115.1777" x="260.9021" y="1848.3566">Insert order records</text><text fill="#000000" font-family="sans-serif" font-size="13.2" lengthAdjust="spacing" textLength="191.0455" x="260.9021" y="1865.9137">(table, user, notes, status='todo')</text><polygon fill="#F39C12" points="356.4248,1774.7125,369.6248,1787.9125,356.4248,1801.1125,343.2248,1787.9125,356.4248,1774.7125" style="stroke:#E67E22;stroke-width:0.55;"/><polygon fill="#F39C12" points="308.0042,1902.2266,404.8455,1902.2266,418.0455,1915.4266,404.8455,1928.6266,308.0042,1928.6266,294.8042,1915.4266,308.0042,1902.2266" style="stroke:#E67E22;stroke-width:0.55;"/><text fill="#000000" font-family="sans-serif" font-size="12.1" lengthAdjust="spacing" textLength="96.8414" x="308.0042" y="1920.4367">Insert successful?</text><text fill="#000000" font-family="sans-serif" font-size="12.1" lengthAdjust="spacing" textLength="13.4589" x="418.0455" y="1912.3897">no</text><rect fill="#ECF0F1" height="39.557" rx="13.75" ry="13.75" style="stroke:#2C3E50;stroke-width:0.55;" width="135.7018" x="288.574" y="1976.3573"/><text fill="#000000" font-family="sans-serif" font-size="13.2" lengthAdjust="spacing" textLength="113.7018" x="299.574" y="2001.6015">Commit transaction</text><rect fill="#ECF0F1" height="39.557" rx="13.75" ry="13.75" style="stroke:#2C3E50;stroke-width:0.55;" width="173.858" x="269.4958" y="2051.1144"/><text fill="#000000" font-family="sans-serif" font-size="13.2" lengthAdjust="spacing" textLength="151.858" x="280.4958" y="2076.3585">Display success message</text><rect fill="#ECF0F1" height="39.557" rx="13.75" ry="13.75" style="stroke:#2C3E50;stroke-width:0.55;" width="79.215" x="316.8173" y="2112.6714"/><text fill="#000000" font-family="sans-serif" font-size="13.2" lengthAdjust="spacing" textLength="57.215" x="327.8173" y="2137.9155">Clear cart</text><rect fill="#ECF0F1" height="39.557" rx="13.75" ry="13.75" style="stroke:#2C3E50;stroke-width:0.55;" width="193.7031" x="259.5733" y="2174.2284"/><text fill="#000000" font-family="sans-serif" font-size="13.2" lengthAdjust="spacing" textLength="171.7031" x="270.5733" y="2199.4726">Navigate to waiter dashboard</text><ellipse cx="356.4248" cy="2247.8854" fill="none" rx="12.1" ry="12.1" style="stroke:#222222;stroke-width:1.1;"/><ellipse cx="356.4248" cy="2247.8854" fill="#222222" rx="6.6" ry="6.6" style="stroke:#222222;stroke-width:1.1;"/><line style="stroke:#181818;stroke-width:1.1;" x1="180.3647" x2="180.3647" y1="171.557" y2="202.3355"/><polygon fill="#181818" points="175.9647,191.3355,180.3647,202.3355,184.7647,191.3355,180.3647,195.7355" style="stroke:#181818;stroke-width:1.1;"/><line style="stroke:#181818;stroke-width:1.1;" x1="378.8094" x2="378.8094" y1="171.557" y2="193.557"/><polygon fill="#181818" points="374.4094,182.557,378.8094,193.557,383.2094,182.557,378.8094,186.957" style="stroke:#181818;stroke-width:1.1;"/><line style="stroke:#181818;stroke-width:1.1;" x1="554.8696" x2="554.8696" y1="171.557" y2="202.3355"/><polygon fill="#181818" points="550.4696,191.3355,554.8696,202.3355,559.2696,191.3355,554.8696,195.7355" style="stroke:#181818;stroke-width:1.1;"/><line style="stroke:#181818;stroke-width:1.1;" x1="180.3647" x2="180.3647" y1="241.8926" y2="272.6711"/><polygon fill="#181818" points="175.9647,261.6711,180.3647,272.6711,184.7647,261.6711,180.3647,266.0711" style="stroke:#181818;stroke-width:1.1;"/><line style="stroke:#181818;stroke-width:1.1;" x1="378.8094" x2="378.8094" y1="250.6711" y2="272.6711"/><polygon fill="#181818" points="374.4094,261.6711,378.8094,272.6711,383.2094,261.6711,378.8094,266.0711" style="stroke:#181818;stroke-width:1.1;"/><line style="stroke:#181818;stroke-width:1.1;" x1="554.8696" x2="554.8696" y1="241.8926" y2="272.6711"/><polygon fill="#181818" points="550.4696,261.6711,554.8696,272.6711,559.2696,261.6711,554.8696,266.0711" style="stroke:#181818;stroke-width:1.1;"/><line style="stroke:#181818;stroke-width:1.1;" x1="356.4248" x2="356.4248" y1="142.957" y2="164.957"/><polygon fill="#181818" points="352.0248,153.957,356.4248,164.957,360.8248,153.957,356.4248,158.357" style="stroke:#181818;stroke-width:1.1;"/><line style="stroke:#181818;stroke-width:1.1;" x1="185.4377" x2="185.4377" y1="604.5918" y2="626.5918"/><polygon fill="#181818" points="181.0377,615.5918,185.4377,626.5918,189.8377,615.5918,185.4377,619.9918" style="stroke:#181818;stroke-width:1.1;"/><line style="stroke:#181818;stroke-width:1.1;" x1="185.4377" x2="185.4377" y1="683.7059" y2="705.7059"/><polygon fill="#181818" points="181.0377,694.7059,185.4377,705.7059,189.8377,694.7059,185.4377,699.1059" style="stroke:#181818;stroke-width:1.1;"/><line style="stroke:#181818;stroke-width:1.1;" x1="290.0953" x2="185.4377" y1="540.8348" y2="540.8348"/><line style="stroke:#181818;stroke-width:1.1;" x1="185.4377" x2="185.4377" y1="540.8348" y2="565.0348"/><polygon fill="#181818" points="181.0377,554.0348,185.4377,565.0348,189.8377,554.0348,185.4377,558.4348" style="stroke:#181818;stroke-width:1.1;"/><line style="stroke:#181818;stroke-width:1.1;" x1="422.7544" x2="527.412" y1="540.8348" y2="540.8348"/><line style="stroke:#181818;stroke-width:1.1;" x1="527.412" x2="527.412" y1="540.8348" y2="565.0348"/><polygon fill="#181818" points="523.012,554.0348,527.412,565.0348,531.812,554.0348,527.412,558.4348" style="stroke:#181818;stroke-width:1.1;"/><line style="stroke:#181818;stroke-width:1.1;" x1="185.4377" x2="185.4377" y1="745.2629" y2="765.0629"/><line style="stroke:#181818;stroke-width:1.1;" x1="185.4377" x2="343.2248" y1="765.0629" y2="765.0629"/><polygon fill="#181818" points="332.2248,760.6629,343.2248,765.0629,332.2248,769.4629,336.6248,765.0629" style="stroke:#181818;stroke-width:1.1;"/><line style="stroke:#181818;stroke-width:1.1;" x1="527.412" x2="527.412" y1="604.5918" y2="765.0629"/><line style="stroke:#181818;stroke-width:1.1;" x1="527.412" x2="369.6248" y1="765.0629" y2="765.0629"/><polygon fill="#181818" points="380.6248,760.6629,369.6248,765.0629,380.6248,769.4629,376.2248,765.0629" style="stroke:#181818;stroke-width:1.1;"/><line style="stroke:#181818;stroke-width:1.1;" x1="356.4248" x2="356.4248" y1="778.2629" y2="800.2629"/><polygon fill="#181818" points="352.0248,789.2629,356.4248,800.2629,360.8248,789.2629,356.4248,793.6629" style="stroke:#181818;stroke-width:1.1;"/><line style="stroke:#181818;stroke-width:1.1;" x1="101.5953" x2="90.5953" y1="912.4199" y2="912.4199"/><line style="stroke:#181818;stroke-width:1.1;" x1="90.5953" x2="90.5953" y1="912.4199" y2="936.6199"/><polygon fill="#181818" points="86.1953,925.6199,90.5953,936.6199,94.9953,925.6199,90.5953,930.0199" style="stroke:#181818;stroke-width:1.1;"/><line style="stroke:#181818;stroke-width:1.1;" x1="255.7838" x2="266.7838" y1="912.4199" y2="912.4199"/><line style="stroke:#181818;stroke-width:1.1;" x1="266.7838" x2="266.7838" y1="912.4199" y2="936.6199"/><polygon fill="#181818" points="262.3838,925.6199,266.7838,936.6199,271.1838,925.6199,266.7838,930.0199" style="stroke:#181818;stroke-width:1.1;"/><line style="stroke:#181818;stroke-width:1.1;" x1="90.5953" x2="90.5953" y1="976.177" y2="1013.534"/><line style="stroke:#181818;stroke-width:1.1;" x1="90.5953" x2="165.4896" y1="1013.534" y2="1013.534"/><polygon fill="#181818" points="154.4896,1009.134,165.4896,1013.534,154.4896,1017.934,158.8896,1013.534" style="stroke:#181818;stroke-width:1.1;"/><line style="stroke:#181818;stroke-width:1.1;" x1="266.7838" x2="266.7838" y1="993.734" y2="1013.534"/><line style="stroke:#181818;stroke-width:1.1;" x1="266.7838" x2="191.8896" y1="1013.534" y2="1013.534"/><polygon fill="#181818" points="202.8896,1009.134,191.8896,1013.534,202.8896,1017.934,198.4896,1013.534" style="stroke:#181818;stroke-width:1.1;"/><line style="stroke:#181818;stroke-width:1.1;" x1="484.8049" x2="450.1723" y1="912.4199" y2="912.4199"/><line style="stroke:#181818;stroke-width:1.1;" x1="450.1723" x2="450.1723" y1="912.4199" y2="936.6199"/><polygon fill="#181818" points="445.7723,925.6199,450.1723,936.6199,454.5723,925.6199,450.1723,930.0199" style="stroke:#181818;stroke-width:1.1;"/><line style="stroke:#181818;stroke-width:1.1;" x1="583.5154" x2="618.1479" y1="912.4199" y2="912.4199"/><line style="stroke:#181818;stroke-width:1.1;" x1="618.1479" x2="618.1479" y1="912.4199" y2="950.8716"/><polygon fill="#181818" points="613.7479,939.8716,618.1479,950.8716,622.5479,939.8716,618.1479,944.2716" style="stroke:#181818;stroke-width:1.1;"/><line style="stroke:#181818;stroke-width:1.1;" x1="450.1723" x2="450.1723" y1="976.177" y2="1024.4803"/><line style="stroke:#181818;stroke-width:1.1;" x1="450.1723" x2="520.9601" y1="1024.4803" y2="1024.4803"/><polygon fill="#181818" points="509.9601,1020.0803,520.9601,1024.4803,509.9601,1028.8803,514.3601,1024.4803" style="stroke:#181818;stroke-width:1.1;"/><line style="stroke:#181818;stroke-width:1.1;" x1="618.1479" x2="618.1479" y1="990.4286" y2="1024.4803"/><line style="stroke:#181818;stroke-width:1.1;" x1="618.1479" x2="547.3601" y1="1024.4803" y2="1024.4803"/><polygon fill="#181818" points="558.3601,1020.0803,547.3601,1024.4803,558.3601,1028.8803,553.9601,1024.4803" style="stroke:#181818;stroke-width:1.1;"/><line style="stroke:#181818;stroke-width:1.1;" x1="313.2909" x2="178.6896" y1="875.0199" y2="875.0199"/><line style="stroke:#181818;stroke-width:1.1;" x1="178.6896" x2="178.6896" y1="875.0199" y2="899.2199"/><polygon fill="#181818" points="174.2896,888.2199,178.6896,899.2199,183.0896,888.2199,178.6896,892.6199" style="stroke:#181818;stroke-width:1.1;"/><line style="stroke:#181818;stroke-width:1.1;" x1="399.5588" x2="534.1601" y1="875.0199" y2="875.0199"/><line style="stroke:#181818;stroke-width:1.1;" x1="534.1601" x2="534.1601" y1="875.0199" y2="899.2199"/><polygon fill="#181818" points="529.7601,888.2199,534.1601,899.2199,538.5601,888.2199,534.1601,892.6199" style="stroke:#181818;stroke-width:1.1;"/><line style="stroke:#181818;stroke-width:1.1;" x1="178.6896" x2="178.6896" y1="1026.734" y2="1057.4803"/><line style="stroke:#181818;stroke-width:1.1;" x1="178.6896" x2="343.2248" y1="1057.4803" y2="1057.4803"/><polygon fill="#181818" points="332.2248,1053.0803,343.2248,1057.4803,332.2248,1061.8803,336.6248,1057.4803" style="stroke:#181818;stroke-width:1.1;"/><line style="stroke:#181818;stroke-width:1.1;" x1="534.1601" x2="534.1601" y1="1037.6803" y2="1057.4803"/><line style="stroke:#181818;stroke-width:1.1;" x1="534.1601" x2="369.6248" y1="1057.4803" y2="1057.4803"/><polygon fill="#181818" points="380.6248,1053.0803,369.6248,1057.4803,380.6248,1061.8803,376.2248,1057.4803" style="stroke:#181818;stroke-width:1.1;"/><line style="stroke:#181818;stroke-width:1.1;" x1="356.4248" x2="356.4248" y1="839.8199" y2="861.8199"/><polygon fill="#181818" points="352.0248,850.8199,356.4248,861.8199,360.8248,850.8199,356.4248,855.2199" style="stroke:#181818;stroke-width:1.1;"/><line style="stroke:#181818;stroke-width:1.1;" x1="356.4248" x2="356.4248" y1="1070.6803" y2="1092.6803"/><polygon fill="#181818" points="352.0248,1081.6803,356.4248,1092.6803,360.8248,1081.6803,356.4248,1086.0803" style="stroke:#181818;stroke-width:1.1;"/><line style="stroke:#181818;stroke-width:1.1;" x1="356.4248" x2="356.4248" y1="1132.2373" y2="1154.2373"/><polygon fill="#181818" points="352.0248,1143.2373,356.4248,1154.2373,360.8248,1143.2373,356.4248,1147.6373" style="stroke:#181818;stroke-width:1.1;"/><line style="stroke:#181818;stroke-width:1.1;" x1="356.4248" x2="356.4248" y1="505.6348" y2="527.6348"/><polygon fill="#181818" points="352.0248,516.6348,356.4248,527.6348,360.8248,516.6348,356.4248,521.0348" style="stroke:#181818;stroke-width:1.1;"/><line style="stroke:#181818;stroke-width:1.1;" x1="422.7662" x2="954.1587" y1="1246.5514" y2="1246.5514"/><polygon fill="#181818" points="949.7587,863.9931,954.1587,852.9931,958.5587,863.9931,954.1587,859.5931" style="stroke:#181818;stroke-width:1.1;"/><line style="stroke:#181818;stroke-width:1.1;" x1="954.1587" x2="954.1587" y1="492.4348" y2="1246.5514"/><line style="stroke:#181818;stroke-width:1.1;" x1="954.1587" x2="369.6248" y1="492.4348" y2="492.4348"/><polygon fill="#181818" points="380.6248,488.0348,369.6248,492.4348,380.6248,496.8348,376.2248,492.4348" style="stroke:#181818;stroke-width:1.1;"/><line style="stroke:#181818;stroke-width:1.1;" x1="356.4248" x2="356.4248" y1="1211.3514" y2="1233.3514"/><polygon fill="#181818" points="352.0248,1222.3514,356.4248,1233.3514,360.8248,1222.3514,356.4248,1226.7514" style="stroke:#181818;stroke-width:1.1;"/><line style="stroke:#181818;stroke-width:1.1;" x1="356.4248" x2="356.4248" y1="410.7684" y2="479.2348"/><polygon fill="#181818" points="352.0248,468.2348,356.4248,479.2348,360.8248,468.2348,356.4248,472.6348" style="stroke:#181818;stroke-width:1.1;"/><line style="stroke:#181818;stroke-width:1.1;" x1="356.4248" x2="356.4248" y1="327.6711" y2="353.6543"/><polygon fill="#181818" points="352.0248,342.6543,356.4248,353.6543,360.8248,342.6543,356.4248,347.0543" style="stroke:#181818;stroke-width:1.1;"/><line style="stroke:#181818;stroke-width:1.1;" x1="402.5749" x2="984.9587" y1="1330.2115" y2="1330.2115"/><polygon fill="#181818" points="980.5587,807.4612,984.9587,796.4612,989.3587,807.4612,984.9587,803.0612" style="stroke:#181818;stroke-width:1.1;"/><line style="stroke:#181818;stroke-width:1.1;" x1="984.9587" x2="984.9587" y1="314.4711" y2="1330.2115"/><line style="stroke:#181818;stroke-width:1.1;" x1="984.9587" x2="369.6248" y1="314.4711" y2="314.4711"/><polygon fill="#181818" points="380.6248,310.0711,369.6248,314.4711,380.6248,318.8711,376.2248,314.4711" style="stroke:#181818;stroke-width:1.1;"/><line style="stroke:#181818;stroke-width:1.1;" x1="356.4248" x2="356.4248" y1="1259.7514" y2="1317.0115"/><polygon fill="#181818" points="352.0248,1306.0115,356.4248,1317.0115,360.8248,1306.0115,356.4248,1310.4115" style="stroke:#181818;stroke-width:1.1;"/><text fill="#000000" font-family="sans-serif" font-size="12.1" lengthAdjust="spacing" textLength="13.4589" x="360.8248" y="1293.3615">no</text><line style="stroke:#181818;stroke-width:1.1;" x1="356.4248" x2="356.4248" y1="279.2711" y2="301.2711"/><polygon fill="#181818" points="352.0248,290.2711,356.4248,301.2711,360.8248,290.2711,356.4248,294.6711" style="stroke:#181818;stroke-width:1.1;"/><line style="stroke:#181818;stroke-width:1.1;" x1="356.4248" x2="356.4248" y1="1343.4115" y2="1391.1423"/><polygon fill="#181818" points="352.0248,1380.1423,356.4248,1391.1423,360.8248,1380.1423,356.4248,1384.5423" style="stroke:#181818;stroke-width:1.1;"/><text fill="#000000" font-family="sans-serif" font-size="12.1" lengthAdjust="spacing" textLength="13.4589" x="360.8248" y="1368.8555">no</text><line style="stroke:#181818;stroke-width:1.1;" x1="356.4248" x2="356.4248" y1="1549.3113" y2="1604.5831"/><polygon fill="#181818" points="352.0248,1593.5831,356.4248,1604.5831,360.8248,1593.5831,356.4248,1597.9831" style="stroke:#181818;stroke-width:1.1;"/><line style="stroke:#181818;stroke-width:1.1;" x1="356.4248" x2="356.4248" y1="1430.6993" y2="1509.7543"/><polygon fill="#181818" points="352.0248,1498.7543,356.4248,1509.7543,360.8248,1498.7543,356.4248,1503.1543" style="stroke:#181818;stroke-width:1.1;"/><line style="stroke:#181818;stroke-width:1.1;" x1="356.4248" x2="356.4248" y1="81.4" y2="103.4"/><polygon fill="#181818" points="352.0248,92.4,356.4248,103.4,360.8248,92.4,356.4248,96.8" style="stroke:#181818;stroke-width:1.1;"/><line style="stroke:#181818;stroke-width:1.1;" x1="409.972" x2="1004.7587" y1="1692.5401" y2="1692.5401"/><polygon fill="#181818" points="1000.3587,866.1716,1004.7587,855.1716,1009.1587,866.1716,1004.7587,861.7716" style="stroke:#181818;stroke-width:1.1;"/><line style="stroke:#181818;stroke-width:1.1;" x1="1004.7587" x2="1004.7587" y1="68.2" y2="1692.5401"/><line style="stroke:#181818;stroke-width:1.1;" x1="1004.7587" x2="369.6248" y1="68.2" y2="68.2"/><polygon fill="#181818" points="380.6248,63.8,369.6248,68.2,380.6248,72.6,376.2248,68.2" style="stroke:#181818;stroke-width:1.1;"/><line style="stroke:#181818;stroke-width:1.1;" x1="356.4248" x2="356.4248" y1="1644.1401" y2="1679.3401"/><polygon fill="#181818" points="352.0248,1668.3401,356.4248,1679.3401,360.8248,1668.3401,356.4248,1672.7401" style="stroke:#181818;stroke-width:1.1;"/><line style="stroke:#181818;stroke-width:1.1;" x1="356.4248" x2="356.4248" y1="33" y2="55"/><polygon fill="#181818" points="352.0248,44,356.4248,55,360.8248,44,356.4248,48.4" style="stroke:#181818;stroke-width:1.1;"/><line style="stroke:#181818;stroke-width:1.1;" x1="356.4248" x2="356.4248" y1="1801.1125" y2="1823.1125"/><polygon fill="#181818" points="352.0248,1812.1125,356.4248,1823.1125,360.8248,1812.1125,356.4248,1816.5125" style="stroke:#181818;stroke-width:1.1;"/><line style="stroke:#181818;stroke-width:1.1;" x1="418.0455" x2="476.1476" y1="1915.4266" y2="1915.4266"/><polygon fill="#181818" points="471.7476,1862.6695,476.1476,1851.6695,480.5476,1862.6695,476.1476,1858.2695" style="stroke:#181818;stroke-width:1.1;"/><line style="stroke:#181818;stroke-width:1.1;" x1="476.1476" x2="476.1476" y1="1787.9125" y2="1915.4266"/><line style="stroke:#181818;stroke-width:1.1;" x1="476.1476" x2="369.6248" y1="1787.9125" y2="1787.9125"/><polygon fill="#181818" points="380.6248,1783.5125,369.6248,1787.9125,380.6248,1792.3125,376.2248,1787.9125" style="stroke:#181818;stroke-width:1.1;"/><line style="stroke:#181818;stroke-width:1.1;" x1="356.4248" x2="356.4248" y1="1880.2266" y2="1902.2266"/><polygon fill="#181818" points="352.0248,1891.2266,356.4248,1902.2266,360.8248,1891.2266,356.4248,1895.6266" style="stroke:#181818;stroke-width:1.1;"/><line style="stroke:#181818;stroke-width:1.1;" x1="356.4248" x2="356.4248" y1="1928.6266" y2="1976.3573"/><polygon fill="#181818" points="352.0248,1965.3573,356.4248,1976.3573,360.8248,1965.3573,356.4248,1969.7573" style="stroke:#181818;stroke-width:1.1;"/><text fill="#000000" font-family="sans-serif" font-size="12.1" lengthAdjust="spacing" textLength="18.8294" x="360.8248" y="1954.0705">yes</text><line style="stroke:#181818;stroke-width:1.1;" x1="356.4248" x2="356.4248" y1="1705.7401" y2="1774.7125"/><polygon fill="#181818" points="352.0248,1763.7125,356.4248,1774.7125,360.8248,1763.7125,356.4248,1768.1125" style="stroke:#181818;stroke-width:1.1;"/><text fill="#000000" font-family="sans-serif" font-size="12.1" lengthAdjust="spacing" textLength="18.8294" x="360.8248" y="1731.1841">yes</text><line style="stroke:#181818;stroke-width:1.1;" x1="356.4248" x2="356.4248" y1="2015.9144" y2="2051.1144"/><polygon fill="#181818" points="352.0248,2040.1144,356.4248,2051.1144,360.8248,2040.1144,356.4248,2044.5144" style="stroke:#181818;stroke-width:1.1;"/><line style="stroke:#181818;stroke-width:1.1;" x1="356.4248" x2="356.4248" y1="2090.6714" y2="2112.6714"/><polygon fill="#181818" points="352.0248,2101.6714,356.4248,2112.6714,360.8248,2101.6714,356.4248,2106.0714" style="stroke:#181818;stroke-width:1.1;"/><line style="stroke:#181818;stroke-width:1.1;" x1="356.4248" x2="356.4248" y1="2152.2284" y2="2174.2284"/><polygon fill="#181818" points="352.0248,2163.2284,356.4248,2174.2284,360.8248,2163.2284,356.4248,2167.6284" style="stroke:#181818;stroke-width:1.1;"/><line style="stroke:#181818;stroke-width:1.1;" x1="356.4248" x2="356.4248" y1="2213.7854" y2="2235.7854"/><polygon fill="#181818" points="352.0248,2224.7854,356.4248,2235.7854,360.8248,2224.7854,356.4248,2229.1854" style="stroke:#181818;stroke-width:1.1;"/><?plantuml-src dLPDRziu4BthLmoSGsCWsNKSR8f8RHQDOmC6YgQj6-mb5reSoqGeKajIzggB_lSTKX-sRAS5Lhd4v7ozDwCtiYz25Som79OiVScCBXMVQAaDdCsc_Y-odGLBdTW8Ly6_4T1pV-WmdSn6iwlwJXkEfZaVJwwdVup2-S8nuzhZjn-cD_Nnj8in6LtVZk_3uODWkLRyACti-dPoDUwPx6URthoTZiVHZsYlSgKTlbRrR3QxdTuSLzsayN5yqL5ai43celWl9XmQi2WnTHOSMqfCeYXQQVCImiGVDUDG6CrBRx0oEWVEo8vPClHcm38cL6qyLy899iLtf93Cf6jO2Ka9djLMk3LmN5AngL3PiUi2NLd0qnnIdHTQeN8sYL1n2ALq5KVnWx25P1NagCfdfKt65ENZiAmWPGupRIf245Wo8bkx4Fvp2u3Ntd4ulOHFB4TWbALrRSwV20YX5Yas1nyu__qhvdg3LA1oHaiRglDveeWwumYvLZ1uzBJ3n8EmuMX0pGf1MWJGF685vujzbkgXn3-7uDQeuBn2E-oi0qbJLNShE3dynoNzUzzEk1wDSlkipXksaMWdnCC4thqxAvZ4p22gkxkevth0r_vZjILmfJ01EgGIhHNSi9xXZejUGOlAEimRVBQRertPA2t2kT87GDicCobFEIakLhjCD3j-V5l3f4_nOu66-KPql58l--cyMJCXbD4WunK8GafTVRqPpS2d1caI7VnTCaKqLVsEd8ONNAaAKBW5uGboEcIZhhLnu3rS3PD3ZWbsFtGzayTmlhHXxk3g5nWUy7zZQDw80258WmUHH4U6Fvak_ynNli0kFGWBI3-af-Kx6drnqikx3EeA1g3RBbC9YjATz5WYa1a9IexyjoEBtGZ_ZFM3qNigI0qnuAPg7PDxw8cUbK6xRWSJfB2kaS8o-F4Miq2RxAi4RDT24kiJqXgXIcmKcfIJcadqx5fvUKT5a--FLY8xLryIveMhNdDfWCOJAT8N62my0K6-alRgIDU-uaRWDaXQTFIoXeq3jinp5ZJu5zrVr8PWrtfhuzxL9NppcmXKcI_H75pD_RHvAY4mkMCm27aGRNiOpNS6QB-MoXrSFHOU7ztwAcd12PGyEgrgSMiR0-FrXJt9l5OhOVAQZuRyYTJq5fb07oqX9dNMDgCAKVopH_Tdaak2Y5w_9MvG3k3iewVmNfOOw6_NITV6kR98BQ-xO32bV_mQ23lz0agwlAXhlW3w2d2bVV_6QQxV39Fe444JofOfSMbNfMnGU15eHwZgHZQcRPVJud66AUjtc5OrBTraD85ePrlBCl-5GKD7MwpLY_WJsuZClqZqnc_hRnBEx7gfcU69_shHHVGV?></g></svg>